<?xml version="1.0" encoding="utf-8"?>
<!-- Generator: Adobe Illustrator 15.1.0, SVG Export Plug-In  -->
<!DOCTYPE svg PUBLIC "-//W3C//DTD SVG 1.1//EN" "http://www.w3.org/Graphics/SVG/1.1/DTD/svg11.dtd" [
	<!ENTITY ns_flows "http://ns.adobe.com/Flows/1.0/">
]>
<svg version="1.1"
	 xmlns="http://www.w3.org/2000/svg" xmlns:xlink="http://www.w3.org/1999/xlink" xmlns:a="http://ns.adobe.com/AdobeSVGViewerExtensions/3.0/"
	 x="0px" y="0px" width="236px" height="127px" viewBox="-11.988 -16.812 236 127"
	 overflow="visible" enable-background="new -11.988 -16.812 236 127" xml:space="preserve">
<defs>
</defs>
<rect x="1.33" y="0.829" fill="none" stroke="#EE3124" stroke-miterlimit="10" width="209.722" height="96.76"/>
<line fill="none" stroke="#EE3124" stroke-width="0.5" stroke-miterlimit="10" x1="106.191" y1="0.829" x2="1.33" y2="97.589"/>
<line fill="none" stroke="#EE3124" stroke-width="0.5" stroke-miterlimit="10" x1="41.145" y1="97.589" x2="110.719" y2="0.829"/>
<line fill="none" stroke="#EE3124" stroke-width="0.5" stroke-miterlimit="10" x1="113.83" y1="0.829" x2="62.441" y2="97.589"/>
<path fill="none" stroke="#EE3124" stroke-width="0.5" stroke-miterlimit="10" d="M1.33,77.218
	c0,2.777,100.463-76.389,100.463-76.389"/>
<line fill="none" stroke="#EE3124" stroke-width="0.5" stroke-miterlimit="10" x1="1.33" y1="54.996" x2="92.996" y2="0.829"/>
<line fill="none" stroke="#EE3124" stroke-width="0.5" stroke-miterlimit="10" x1="1.33" y1="32.31" x2="119.386" y2="0.829"/>
<line fill="none" stroke="#EE3124" stroke-width="0.5" stroke-miterlimit="10" x1="1.33" y1="11.014" x2="133.737" y2="0.829"/>
<line fill="none" stroke="#EE3124" stroke-width="0.5" stroke-miterlimit="10" x1="53.761" y1="0.829" x2="211.052" y2="54.996"/>
<line fill="none" stroke="#EE3124" stroke-width="0.5" stroke-miterlimit="10" x1="86.053" y1="0.829" x2="211.052" y2="62.402"/>
<line fill="none" stroke="#EE3124" stroke-width="0.5" stroke-miterlimit="10" x1="115.913" y1="0.829" x2="211.052" y2="77.289"/>
<line fill="none" stroke="#EE3124" stroke-width="0.5" stroke-miterlimit="10" x1="140.219" y1="0.829" x2="211.052" y2="89.718"/>
<line fill="none" stroke="#EE3124" stroke-width="0.5" stroke-miterlimit="10" x1="163.482" y1="0.829" x2="211.052" y2="97.589"/>
<line fill="none" stroke="#EE3124" stroke-width="0.5" stroke-miterlimit="10" x1="187.268" y1="0.829" x2="202.256" y2="97.589"/>
<line fill="none" stroke="#EE3124" stroke-width="0.5" stroke-miterlimit="10" x1="205.033" y1="0.829" x2="194.762" y2="97.589"/>
<line fill="none" stroke="#EE3124" stroke-width="0.5" stroke-miterlimit="10" x1="211.052" y1="34.625" x2="110.719" y2="97.589"/>
<line fill="none" stroke="#EE3124" stroke-width="0.5" stroke-miterlimit="10" x1="211.052" y1="68.885" x2="75.932" y2="97.589"/>
<line fill="none" stroke="#EE3124" stroke-width="0.5" stroke-miterlimit="10" x1="211.052" y1="83.235" x2="53.761" y2="97.589"/>
<line fill="none" stroke="#EE3124" stroke-width="0.5" stroke-miterlimit="10" x1="205.033" y1="97.589" x2="1.33" y2="45.273"/>
<line fill="none" stroke="#EE3124" stroke-width="0.5" stroke-miterlimit="10" x1="187.268" y1="97.589" x2="1.33" y2="23.051"/>
<line fill="none" stroke="#EE3124" stroke-width="0.5" stroke-miterlimit="10" x1="167.07" y1="97.589" x2="1.33" y2="5.921"/>
<line fill="none" stroke="#EE3124" stroke-width="0.5" stroke-miterlimit="10" x1="143.492" y1="97.589" x2="16.607" y2="0.829"/>
<line fill="none" stroke="#EE3124" stroke-width="0.5" stroke-miterlimit="10" x1="125.867" y1="97.589" x2="43.922" y2="0.829"/>
<line fill="none" stroke="#EE3124" stroke-width="0.5" stroke-miterlimit="10" x1="92.996" y1="97.589" x2="1.33" y2="64.255"/>
<line fill="none" stroke="#EE3124" stroke-width="0.5" stroke-miterlimit="10" x1="51.562" y1="97.589" x2="1.33" y2="85.089"/>
<line fill="none" stroke="#EE3124" stroke-width="0.5" stroke-miterlimit="10" x1="154.339" y1="0.829" x2="1.33" y2="39.059"/>
<line fill="none" stroke="#EE3124" stroke-width="0.5" stroke-miterlimit="10" x1="1.33" y1="60.32" x2="175.635" y2="0.829"/>
<line fill="none" stroke="#EE3124" stroke-width="0.5" stroke-miterlimit="10" x1="1.33" y1="71.431" x2="194.848" y2="0.829"/>
<line fill="none" stroke="#EE3124" stroke-width="0.5" stroke-miterlimit="10" x1="1.33" y1="80.921" x2="211.052" y2="5.921"/>
<line fill="none" stroke="#EE3124" stroke-width="0.5" stroke-miterlimit="10" x1="23.089" y1="97.589" x2="148.552" y2="0.829"/>
<line fill="none" stroke="#EE3124" stroke-width="0.5" stroke-miterlimit="10" x1="33.469" y1="97.589" x2="73.219" y2="0.829"/>
<line fill="none" stroke="#EE3124" stroke-width="0.5" stroke-miterlimit="10" x1="211.052" y1="26.523" x2="71.219" y2="97.589"/>
<line fill="none" stroke="#EE3124" stroke-width="0.5" stroke-miterlimit="10" x1="154.339" y1="97.589" x2="158.719" y2="0.829"/>
<line fill="none" stroke="#EE3124" stroke-width="0.5" stroke-miterlimit="10" x1="181.219" y1="0.829" x2="158.719" y2="97.589"/>
<line fill="none" stroke="#EE3124" stroke-width="0.5" stroke-miterlimit="10" x1="130.219" y1="0.671" x2="149.969" y2="97.589"/>
<line fill="none" stroke="#EE3124" stroke-width="0.5" stroke-miterlimit="10" x1="133.737" y1="97.589" x2="135.719" y2="0.671"/>
<line fill="none" stroke="#EE3124" stroke-width="0.5" stroke-miterlimit="10" x1="202.256" y1="0.671" x2="163.482" y2="97.589"/>
<line fill="none" stroke="#EE3124" stroke-width="0.5" stroke-miterlimit="10" x1="37.969" y1="0.829" x2="14.969" y2="97.589"/>
<line fill="none" stroke="#EE3124" stroke-width="0.5" stroke-miterlimit="10" x1="19.219" y1="97.589" x2="11.469" y2="0.829"/>
<line fill="none" stroke="#EE3124" stroke-width="0.5" stroke-miterlimit="10" x1="178.645" y1="0.829" x2="119.386" y2="97.589"/>
<line fill="none" stroke="#EE3124" stroke-width="0.5" stroke-miterlimit="10" x1="29.969" y1="97.589" x2="14.969" y2="0.829"/>
<line fill="none" stroke="#EE3124" stroke-width="0.5" stroke-miterlimit="10" x1="49.969" y1="0.829" x2="36.969" y2="97.589"/>
<polyline fill="none" stroke="#EE3124" stroke-width="0.5" stroke-miterlimit="10" points="130.219,97.589 97.626,0.671 
	199.897,0.829 106.19,97.589 "/>
<line fill="none" stroke="#EE3124" stroke-width="0.5" stroke-miterlimit="10" x1="137.719" y1="97.589" x2="211.052" y2="2.921"/>
<line fill="none" stroke="#EE3124" stroke-width="0.5" stroke-miterlimit="10" x1="75.932" y1="0.829" x2="94.299" y2="97.589"/>
<line fill="none" stroke="#EE3124" stroke-width="0.5" stroke-miterlimit="10" x1="31.969" y1="0.829" x2="55.969" y2="97.921"/>
<line fill="none" stroke="#EE3124" stroke-width="0.5" stroke-miterlimit="10" x1="106.189" y1="97.843" x2="211.051" y2="1.083"/>
<line fill="none" stroke="#EE3124" stroke-width="0.5" stroke-miterlimit="10" x1="171.236" y1="1.083" x2="101.662" y2="97.843"/>
<line fill="none" stroke="#EE3124" stroke-width="0.5" stroke-miterlimit="10" x1="98.551" y1="97.843" x2="149.94" y2="1.083"/>
<path fill="none" stroke="#EE3124" stroke-width="0.5" stroke-miterlimit="10" d="M211.051,21.453
	c0-2.777-100.463,76.39-100.463,76.39"/>
<line fill="none" stroke="#EE3124" stroke-width="0.5" stroke-miterlimit="10" x1="211.051" y1="43.675" x2="119.385" y2="97.843"/>
<line fill="none" stroke="#EE3124" stroke-width="0.5" stroke-miterlimit="10" x1="211.051" y1="66.361" x2="92.995" y2="97.843"/>
<line fill="none" stroke="#EE3124" stroke-width="0.5" stroke-miterlimit="10" x1="211.051" y1="87.657" x2="78.644" y2="97.843"/>
<polyline fill="none" stroke="#EE3124" stroke-width="0.5" stroke-miterlimit="10" points="1.329,46.453 191.606,97.843 
	171.687,43.748 "/>
<line fill="none" stroke="#EE3124" stroke-width="0.5" stroke-miterlimit="10" x1="158.62" y1="97.843" x2="1.329" y2="43.675"/>
<line fill="none" stroke="#EE3124" stroke-width="0.5" stroke-miterlimit="10" x1="126.328" y1="97.843" x2="1.329" y2="36.268"/>
<line fill="none" stroke="#EE3124" stroke-width="0.5" stroke-miterlimit="10" x1="96.468" y1="97.843" x2="1.329" y2="21.382"/>
<line fill="none" stroke="#EE3124" stroke-width="0.5" stroke-miterlimit="10" x1="72.162" y1="97.843" x2="1.329" y2="8.954"/>
<line fill="none" stroke="#EE3124" stroke-width="0.5" stroke-miterlimit="10" x1="48.898" y1="97.843" x2="1.329" y2="1.083"/>
<line fill="none" stroke="#EE3124" stroke-width="0.5" stroke-miterlimit="10" x1="25.113" y1="97.843" x2="10.125" y2="1.083"/>
<line fill="none" stroke="#EE3124" stroke-width="0.5" stroke-miterlimit="10" x1="7.348" y1="97.843" x2="17.619" y2="1.083"/>
<line fill="none" stroke="#EE3124" stroke-width="0.5" stroke-miterlimit="10" x1="1.329" y1="87.657" x2="33.736" y2="1.083"/>
<line fill="none" stroke="#EE3124" stroke-width="0.5" stroke-miterlimit="10" x1="1.329" y1="64.046" x2="101.662" y2="1.083"/>
<line fill="none" stroke="#EE3124" stroke-width="0.5" stroke-miterlimit="10" x1="1.329" y1="49.462" x2="114.755" y2="1.083"/>
<line fill="none" stroke="#EE3124" stroke-width="0.5" stroke-miterlimit="10" x1="1.329" y1="29.787" x2="136.449" y2="1.083"/>
<line fill="none" stroke="#EE3124" stroke-width="0.5" stroke-miterlimit="10" x1="1.329" y1="15.435" x2="158.62" y2="1.083"/>
<line fill="none" stroke="#EE3124" stroke-width="0.5" stroke-miterlimit="10" x1="7.348" y1="1.083" x2="211.051" y2="53.398"/>
<line fill="none" stroke="#EE3124" stroke-width="0.5" stroke-miterlimit="10" x1="25.113" y1="1.083" x2="211.051" y2="75.62"/>
<line fill="none" stroke="#EE3124" stroke-width="0.5" stroke-miterlimit="10" x1="45.311" y1="1.083" x2="211.051" y2="92.749"/>
<line fill="none" stroke="#EE3124" stroke-width="0.5" stroke-miterlimit="10" x1="68.889" y1="1.083" x2="195.773" y2="97.843"/>
<line fill="none" stroke="#EE3124" stroke-width="0.5" stroke-miterlimit="10" x1="119.385" y1="1.083" x2="211.051" y2="34.416"/>
<line fill="none" stroke="#EE3124" stroke-width="0.5" stroke-miterlimit="10" x1="160.819" y1="1.083" x2="211.051" y2="13.583"/>
<line fill="none" stroke="#EE3124" stroke-width="0.5" stroke-miterlimit="10" x1="58.042" y1="97.843" x2="211.051" y2="59.611"/>
<line fill="none" stroke="#EE3124" stroke-width="0.5" stroke-miterlimit="10" x1="211.051" y1="38.351" x2="36.746" y2="97.843"/>
<line fill="none" stroke="#EE3124" stroke-width="0.5" stroke-miterlimit="10" x1="211.051" y1="27.24" x2="17.533" y2="97.843"/>
<line fill="none" stroke="#EE3124" stroke-width="0.5" stroke-miterlimit="10" x1="211.051" y1="17.75" x2="1.329" y2="92.749"/>
<line fill="none" stroke="#EE3124" stroke-width="0.5" stroke-miterlimit="10" x1="189.292" y1="1.083" x2="63.829" y2="97.843"/>
<line fill="none" stroke="#EE3124" stroke-width="0.5" stroke-miterlimit="10" x1="178.912" y1="1.083" x2="139.162" y2="97.843"/>
<line fill="none" stroke="#EE3124" stroke-width="0.5" stroke-miterlimit="10" x1="1.329" y1="72.147" x2="141.162" y2="1.083"/>
<line fill="none" stroke="#EE3124" stroke-width="0.5" stroke-miterlimit="10" x1="58.042" y1="1.083" x2="53.662" y2="97.843"/>
<line fill="none" stroke="#EE3124" stroke-width="0.5" stroke-miterlimit="10" x1="31.162" y1="97.843" x2="53.662" y2="1.083"/>
<line fill="none" stroke="#EE3124" stroke-width="0.5" stroke-miterlimit="10" x1="82.162" y1="97.999" x2="62.412" y2="1.083"/>
<line fill="none" stroke="#EE3124" stroke-width="0.5" stroke-miterlimit="10" x1="78.644" y1="1.083" x2="76.662" y2="97.999"/>
<line fill="none" stroke="#EE3124" stroke-width="0.5" stroke-miterlimit="10" x1="10.125" y1="97.999" x2="48.898" y2="1.083"/>
<line fill="none" stroke="#EE3124" stroke-width="0.5" stroke-miterlimit="10" x1="174.412" y1="97.843" x2="197.412" y2="1.083"/>
<line fill="none" stroke="#EE3124" stroke-width="0.5" stroke-miterlimit="10" x1="193.162" y1="1.083" x2="200.912" y2="97.843"/>
<line fill="none" stroke="#EE3124" stroke-width="0.5" stroke-miterlimit="10" x1="33.736" y1="97.843" x2="92.995" y2="1.083"/>
<line fill="none" stroke="#EE3124" stroke-width="0.5" stroke-miterlimit="10" x1="182.412" y1="1.083" x2="197.412" y2="97.843"/>
<line fill="none" stroke="#EE3124" stroke-width="0.5" stroke-miterlimit="10" x1="162.412" y1="97.843" x2="175.412" y2="1.083"/>
<polyline fill="none" stroke="#EE3124" stroke-width="0.5" stroke-miterlimit="10" points="82.162,1.083 114.755,97.999 
	12.483,97.843 106.19,1.083 "/>
<line fill="none" stroke="#EE3124" stroke-width="0.5" stroke-miterlimit="10" x1="74.662" y1="1.083" x2="1.329" y2="95.749"/>
<line fill="none" stroke="#EE3124" stroke-width="0.5" stroke-miterlimit="10" x1="136.449" y1="97.843" x2="118.082" y2="1.083"/>
<line fill="none" stroke="#EE3124" stroke-width="0.5" stroke-miterlimit="10" x1="180.412" y1="97.843" x2="156.412" y2="0.75"/>
<line fill="none" stroke="#EE3124" stroke-width="0.5" stroke-miterlimit="10" x1="59.219" y1="53.398" x2="97.626" y2="97.999"/>
<line fill="none" stroke="#EE3124" stroke-width="0.5" stroke-miterlimit="10" x1="85.82" y1="58.672" x2="59.219" y2="97.091"/>
<line fill="none" stroke="#EE3124" stroke-width="0.5" stroke-miterlimit="10" x1="67.533" y1="51.755" x2="49.969" y2="97.921"/>
<line fill="none" stroke="#EE3124" stroke-width="0.5" stroke-miterlimit="10" x1="101.793" y1="51.755" x2="126.561" y2="0.829"/>
<line fill="none" stroke="#EE3124" stroke-width="0.5" stroke-miterlimit="10" x1="100.293" y1="54.996" x2="1.329" y2="41.671"/>
<line fill="none" stroke="#EE3124" stroke-width="0.5" stroke-miterlimit="10" x1="100.293" y1="43.421" x2="86.514" y2="97.237"/>
<line fill="none" stroke="#EE3124" stroke-width="0.5" stroke-miterlimit="10" x1="85.82" y1="43.675" x2="107.719" y2="0.671"/>
<line fill="none" stroke="#EE3124" stroke-width="0.5" stroke-miterlimit="10" x1="111.969" y1="48.333" x2="58.042" y2="97.921"/>
<line fill="none" stroke="#EE3124" stroke-width="0.5" stroke-miterlimit="10" x1="118.082" y1="43.421" x2="118.082" y2="97.589"/>
<line fill="none" stroke="#EE3124" stroke-width="0.5" stroke-miterlimit="10" x1="130.219" y1="58.127" x2="160.819" y2="97.237"/>
<line fill="none" stroke="#EE3124" stroke-width="0.5" stroke-miterlimit="10" x1="158.62" y1="62.056" x2="211.515" y2="56.922"/>
<line fill="none" stroke="#EE3124" stroke-width="0.5" stroke-miterlimit="10" x1="158.402" y1="43.675" x2="1.33" y2="58.127"/>
<line fill="none" stroke="#EE3124" stroke-width="0.5" stroke-miterlimit="10" x1="113.83" y1="62.056" x2="42.412" y2="0.671"/>
<polyline fill="none" stroke="#EE3124" stroke-width="0.5" stroke-miterlimit="10" points="48.898,41.671 39.912,1.083 
	132.331,97.999 "/>
<line fill="none" stroke="#EE3124" stroke-width="0.5" stroke-miterlimit="10" x1="171.236" y1="56.922" x2="211.051" y2="30.574"/>
<line fill="none" stroke="#EE3124" stroke-width="0.5" stroke-miterlimit="10" x1="141.162" y1="46.916" x2="211.051" y2="19.944"/>
<line fill="none" stroke="#EE3124" stroke-width="0.5" stroke-miterlimit="10" x1="37.969" y1="59.612" x2="0.867" y2="87.657"/>
<line fill="none" stroke="#EE3124" stroke-width="0.5" stroke-miterlimit="10" x1="49.969" y1="62.056" x2="57.613" y2="97.237"/>
<polyline fill="none" stroke="#EE3124" stroke-width="0.5" stroke-miterlimit="10" points="211.052,52.218 20.774,0.829 
	39.912,43.421 1.33,51.755 49.969,41.297 63.829,0.671 "/>
<polyline fill="none" stroke="#EE3124" stroke-width="0.5" stroke-miterlimit="10" points="42.064,41.671 1.329,17.75 
	135.719,41.671 120.969,0.671 "/>
<line fill="none" stroke="#EE3124" stroke-width="0.5" stroke-miterlimit="10" x1="85.115" y1="62.786" x2="84.2" y2="97.415"/>
<line fill="none" stroke="#EE3124" stroke-width="0.5" stroke-miterlimit="10" x1="113.83" y1="62.056" x2="94.6" y2="97.415"/>
<line fill="none" stroke="#EE3124" stroke-width="0.5" stroke-miterlimit="10" x1="100.293" y1="44.37" x2="115.913" y2="0.671"/>
<line fill="none" stroke="#EE3124" stroke-width="0.5" stroke-miterlimit="10" x1="140.094" y1="36.129" x2="162.412" y2="1.479"/>
<line fill="none" stroke="#EE3124" stroke-width="0.5" stroke-miterlimit="10" x1="146.771" y1="62.786" x2="177.469" y2="97.921"/>
<line fill="none" stroke="#EE3124" stroke-width="0.5" stroke-miterlimit="10" x1="112.625" y1="45.273" x2="1.33" y2="34.416"/>
<line fill="none" stroke="#EE3124" stroke-width="0.5" stroke-miterlimit="10" x1="121.969" y1="62.786" x2="146.771" y2="97.589"/>
<line fill="none" stroke="#EE3124" stroke-width="0.5" stroke-miterlimit="10" x1="160.885" y1="53.398" x2="156.529" y2="97.589"/>
<polyline fill="none" stroke="#EE3124" stroke-width="0.5" stroke-miterlimit="10" points="162.412,52.218 168.458,97.843 
	86.514,1.083 "/>
<line fill="none" stroke="#EE3124" stroke-width="0.5" stroke-miterlimit="10" x1="110.719" y1="46.916" x2="47.163" y2="0.671"/>
<line fill="none" stroke="#EE3124" stroke-width="0.5" stroke-miterlimit="10" x1="69.127" y1="58.672" x2="55.969" y2="97.415"/>
<line fill="none" stroke="#EE3124" stroke-width="0.5" stroke-miterlimit="10" x1="69.162" y1="62.056" x2="68.889" y2="97.999"/>
<line fill="none" stroke="#EE3124" stroke-width="0.5" stroke-miterlimit="10" x1="104.215" y1="58.672" x2="211.052" y2="41.671"/>
<line fill="#FFFFFF" stroke="#EE3124" stroke-width="0.5" stroke-miterlimit="10" x1="122.114" y1="41.671" x2="113.83" y2="0.671"/>
<line fill="#FFFFFF" stroke="#EE3124" stroke-width="0.5" stroke-miterlimit="10" x1="119.386" y1="41.671" x2="132.406" y2="1.083"/>
<line fill="#FFFFFF" stroke="#EE3124" stroke-width="0.5" stroke-miterlimit="10" x1="125.896" y1="42.247" x2="137.719" y2="1.083"/>
<line fill="#FFFFFF" stroke="#EE3124" stroke-width="0.5" stroke-miterlimit="10" x1="36.969" y1="56.078" x2="1.329" y2="66.361"/>
<line fill="#FFFFFF" stroke="#EE3124" stroke-width="0.5" stroke-miterlimit="10" x1="21.219" y1="97.415" x2="37.996" y2="59.488"/>
<line fill="#FFFFFF" stroke="#EE3124" stroke-width="0.5" stroke-miterlimit="10" x1="39.912" y1="52.54" x2="1.33" y2="90.411"/>
<line fill="#FFFFFF" stroke="#EE3124" stroke-width="0.5" stroke-miterlimit="10" x1="82.162" y1="56.922" x2="27.969" y2="97.415"/>
<polyline fill="none" stroke="#EE3124" stroke-width="0.5" stroke-miterlimit="10" points="91.209,43.421 97.626,97.589 
	211.052,49.208 140.219,49.462 "/>
<line fill="none" stroke="#EE3124" stroke-width="0.5" stroke-miterlimit="10" x1="93.403" y1="42.247" x2="95.719" y2="97.921"/>
<line fill="none" stroke="#EE3124" stroke-width="0.5" stroke-miterlimit="10" x1="97.626" y1="43.421" x2="78.644" y2="97.013"/>
<line fill="none" stroke="#EE3124" stroke-width="0.5" stroke-miterlimit="10" x1="113.83" y1="49.208" x2="89.219" y2="97.921"/>
<line fill="none" stroke="#EE3124" stroke-width="0.5" stroke-miterlimit="10" x1="103.182" y1="51.755" x2="143.492" y2="0.671"/>
<line fill="none" stroke="#EE3124" stroke-width="0.5" stroke-miterlimit="10" x1="211.051" y1="80.421" x2="174.412" y2="61.22"/>
<line fill="none" stroke="#EE3124" stroke-width="0.5" stroke-miterlimit="10" x1="206.719" y1="97.589" x2="171.236" y2="59.488"/>
<line fill="none" stroke="#EE3124" stroke-width="0.5" stroke-miterlimit="10" x1="208.969" y1="97.921" x2="171.687" y2="62.541"/>
<polyline fill="none" stroke="#EE3124" stroke-width="0.5" stroke-miterlimit="10" points="169.969,56.922 172.469,97.589 
	80.05,0.671 "/>
<line fill="none" stroke="#EE3124" stroke-width="0.5" stroke-miterlimit="10" x1="211.051" y1="64.255" x2="171.687" y2="58.127"/>
<line fill="none" stroke="#EE3124" stroke-width="0.5" stroke-miterlimit="10" x1="211.052" y1="72.147" x2="128.181" y2="97.415"/>
<line fill="#FFFFFF" stroke="#EE3124" stroke-width="0.5" stroke-miterlimit="10" x1="140.094" y1="33.054" x2="145.52" y2="0.671"/>
<polyline fill="none" stroke="#EE3124" stroke-width="0.5" stroke-miterlimit="10" points="156.412,30.574 153.322,1.083 
	140.219,36.129 "/>
<line fill="none" stroke="#EE3124" stroke-width="0.5" stroke-miterlimit="10" x1="135.719" y1="41.921" x2="96.468" y2="1.083"/>
<line fill="none" stroke="#EE3124" stroke-width="0.5" stroke-miterlimit="10" x1="191.369" y1="0.671" x2="174.412" y2="40.607"/>
<polyline fill="none" stroke="#EE3124" stroke-width="0.5" stroke-miterlimit="10" points="174.032,42.247 211.052,11.014 
	178.645,97.589 "/>
<polyline fill="none" stroke="#EE3124" stroke-width="0.5" stroke-miterlimit="10" points="137.719,56.922 5.219,97.589 
	39.912,41.671 "/>
<line fill="none" stroke="#EE3124" stroke-width="0.5" stroke-miterlimit="10" x1="68.523" y1="54.996" x2="1.33" y2="62.403"/>
<polyline fill="none" stroke="#EE3124" stroke-width="0.5" stroke-miterlimit="10" points="74.662,43.421 66.469,1.083 
	111.969,44.37 "/>
<line fill="none" stroke="#EE3124" stroke-width="0.5" stroke-miterlimit="10" x1="167.07" y1="0.829" x2="159.037" y2="34.416"/>
<line fill="#FFFFFF" stroke="#EE3124" stroke-width="0.5" stroke-miterlimit="10" x1="25.113" y1="41.921" x2="0.867" y2="35.562"/>
<line fill="none" stroke="#EE3124" stroke-width="0.5" stroke-miterlimit="10" x1="25.113" y1="1.479" x2="25.113" y2="98"/>
<path fill="#FFFFFF" stroke="#EE3124" stroke-width="0.5" stroke-miterlimit="10" stroke-dasharray="6" d="M30.76,67.001
	c-1.395,0-2.695-0.229-3.905-0.688s-2.255-1.1-3.135-1.925s-1.567-1.787-2.062-2.888c-0.495-1.1-0.743-2.31-0.743-3.63
	c0-1.355,0.303-2.612,0.908-3.768c0.605-1.155,1.447-2.135,2.529-2.942c1.082-0.806,2.374-1.438,3.878-1.897
	c1.503-0.458,3.153-0.688,4.95-0.688c1.283,0,2.539,0.11,3.768,0.33c1.229,0.22,2.318,0.532,3.272,0.935v-1.65
	c0-1.906-0.542-3.373-1.622-4.4c-1.082-1.026-2.688-1.54-4.812-1.54c-1.541,0-3.045,0.275-4.511,0.825
	c-1.467,0.55-2.97,1.357-4.51,2.42l-2.255-4.675c3.703-2.456,7.699-3.685,11.99-3.685c4.143,0,7.359,1.018,9.652,3.052
	c2.291,2.035,3.438,4.978,3.438,8.828v8.964c0,0.771,0.146,1.32,0.439,1.65s0.807,0.514,1.54,0.551v6.27
	c-0.696,0.146-1.347,0.248-1.952,0.303s-1.127,0.082-1.568,0.082c-1.393-0.037-2.456-0.357-3.189-0.963
	c-0.734-0.604-1.191-1.42-1.375-2.447l-0.165-1.595c-1.284,1.687-2.842,2.97-4.675,3.851C34.811,66.561,32.85,67.001,30.76,67.001z
	 M32.85,61.611c1.246,0,2.429-0.221,3.547-0.66c1.119-0.439,1.989-1.025,2.613-1.76c0.806-0.623,1.21-1.32,1.21-2.09v-3.301
	c-0.88-0.33-1.834-0.596-2.86-0.797c-1.027-0.201-2.017-0.303-2.97-0.303c-1.907,0-3.466,0.432-4.675,1.293
	c-1.211,0.861-1.815,1.952-1.815,3.271c0,1.248,0.476,2.283,1.431,3.107C30.283,61.199,31.455,61.611,32.85,61.611z"/>
<path fill="#FFFFFF" stroke="#EE3124" stroke-width="0.5" stroke-miterlimit="10" stroke-dasharray="6" d="M102.148,66.451h-7.369
	v-16.17c0-2.31-0.404-3.996-1.21-5.06c-0.808-1.063-1.907-1.595-3.3-1.595c-1.431,0-2.787,0.56-4.07,1.678
	c-1.284,1.119-2.2,2.576-2.75,4.373v16.775h-7.37v-16.17c0-2.31-0.395-3.996-1.183-5.06c-0.789-1.063-1.879-1.595-3.272-1.595
	c-1.43,0-2.796,0.55-4.098,1.65c-1.302,1.1-2.228,2.549-2.777,4.345v16.83h-7.37v-28.82h6.655v5.335
	c1.063-1.87,2.521-3.309,4.372-4.318c1.852-1.008,3.969-1.512,6.354-1.512c2.42,0,4.279,0.587,5.582,1.76
	c1.301,1.174,2.153,2.622,2.557,4.345c1.174-1.98,2.658-3.493,4.455-4.538s3.851-1.567,6.16-1.567c1.76,0,3.209,0.33,4.346,0.99
	c1.136,0.66,2.016,1.522,2.64,2.585c0.623,1.064,1.054,2.274,1.292,3.63c0.238,1.357,0.357,2.732,0.357,4.125V66.451z"/>
<path fill="#FFFFFF" stroke="#EE3124" stroke-width="0.5" stroke-miterlimit="10" stroke-dasharray="6" d="M122.607,67.001
	c-1.174,0-2.391-0.092-3.656-0.274c-1.266-0.184-2.502-0.44-3.713-0.771c-1.209-0.33-2.365-0.733-3.465-1.21
	s-2.072-1.008-2.915-1.595l2.97-5.005c3.666,2.384,7.205,3.574,10.615,3.574c1.539,0,2.75-0.274,3.631-0.824
	c0.879-0.551,1.318-1.338,1.318-2.365c0-1.026-0.521-1.787-1.566-2.283c-1.045-0.494-2.797-1.035-5.252-1.622
	c-1.871-0.44-3.467-0.897-4.785-1.375c-1.32-0.476-2.385-1.026-3.191-1.65c-0.807-0.623-1.393-1.338-1.76-2.145
	c-0.367-0.806-0.549-1.76-0.549-2.86c0-1.466,0.293-2.786,0.879-3.96c0.586-1.173,1.402-2.172,2.447-2.998s2.273-1.458,3.686-1.897
	s2.943-0.66,4.592-0.66c2.055,0,4.098,0.321,6.133,0.962c2.035,0.642,3.934,1.513,5.693,2.613l-3.025,4.565
	c-1.613-1.026-3.135-1.769-4.564-2.228c-1.43-0.458-2.861-0.688-4.291-0.688c-1.32,0-2.43,0.257-3.326,0.77
	c-0.9,0.514-1.348,1.339-1.348,2.475c0,0.99,0.43,1.705,1.291,2.145s2.393,0.935,4.594,1.485c2.053,0.514,3.803,1.027,5.252,1.54
	c1.447,0.514,2.641,1.1,3.574,1.76c0.936,0.66,1.613,1.421,2.035,2.283s0.633,1.897,0.633,3.107c0,1.395-0.283,2.659-0.852,3.795
	c-0.57,1.137-1.367,2.1-2.393,2.888c-1.027,0.789-2.283,1.394-3.768,1.815C126.045,66.789,124.404,67.001,122.607,67.001z"/>
<path fill="#FFFFFF" stroke="#EE3124" stroke-width="0.5" stroke-miterlimit="10" stroke-dasharray="6" d="M159.074,64.967
	c-0.99,0.439-2.209,0.879-3.657,1.319c-1.449,0.44-2.962,0.66-4.538,0.66c-1.026,0-1.989-0.129-2.887-0.386
	c-0.899-0.256-1.688-0.668-2.365-1.236c-0.679-0.568-1.22-1.302-1.623-2.201c-0.403-0.897-0.604-1.988-0.604-3.271V43.296h-3.74
	v-5.665h3.74v-9.35h7.37v9.35h6.104v5.665h-6.104v14.08c0,1.027,0.274,1.751,0.824,2.173c0.551,0.422,1.211,0.633,1.98,0.633
	s1.521-0.129,2.255-0.385c0.733-0.257,1.32-0.477,1.76-0.66L159.074,64.967z"/>
<path fill="#FFFFFF" stroke="#EE3124" stroke-width="0.5" stroke-miterlimit="10" stroke-dasharray="6" d="M185.199,66.451
	l-8.36-12.484l-3.96,3.904v8.58h-7.37v-40.15h7.37v24.365l11.55-12.98h7.865l-10.78,12.21l11.551,16.555H185.199z"/>
</svg>
