<?xml version="1.0" encoding="utf-8"?>
<!-- Generator: Adobe Illustrator 15.1.0, SVG Export Plug-In  -->
<!DOCTYPE svg PUBLIC "-//W3C//DTD SVG 1.1//EN" "http://www.w3.org/Graphics/SVG/1.1/DTD/svg11.dtd" [
	<!ENTITY ns_flows "http://ns.adobe.com/Flows/1.0/">
]>
<svg version="1.1"
	 xmlns="http://www.w3.org/2000/svg" xmlns:xlink="http://www.w3.org/1999/xlink" xmlns:a="http://ns.adobe.com/AdobeSVGViewerExtensions/3.0/"
	 x="0px" y="0px" width="236px" height="127px" viewBox="-11.988 -16.812 236 127"
	 overflow="visible" enable-background="new -11.988 -16.812 236 127" xml:space="preserve">
<defs>
</defs>
<rect x="1.33" y="0.829" fill="none" stroke="#FFFFFF" stroke-miterlimit="10" width="209.722" height="96.76"/>
<line fill="none" stroke="#FFFFFF" stroke-width="0.5" stroke-miterlimit="10" x1="106.191" y1="0.829" x2="1.33" y2="97.589"/>
<line fill="none" stroke="#FFFFFF" stroke-width="0.5" stroke-miterlimit="10" x1="41.145" y1="97.589" x2="110.719" y2="0.829"/>
<line fill="none" stroke="#FFFFFF" stroke-width="0.5" stroke-miterlimit="10" x1="113.83" y1="0.829" x2="62.441" y2="97.589"/>
<path fill="none" stroke="#FFFFFF" stroke-width="0.5" stroke-miterlimit="10" d="M1.33,77.218
	c0,2.777,100.463-76.389,100.463-76.389"/>
<line fill="none" stroke="#FFFFFF" stroke-width="0.5" stroke-miterlimit="10" x1="1.33" y1="54.996" x2="92.996" y2="0.829"/>
<line fill="none" stroke="#FFFFFF" stroke-width="0.5" stroke-miterlimit="10" x1="1.33" y1="32.31" x2="119.386" y2="0.829"/>
<line fill="none" stroke="#FFFFFF" stroke-width="0.5" stroke-miterlimit="10" x1="1.33" y1="11.014" x2="133.737" y2="0.829"/>
<line fill="none" stroke="#FFFFFF" stroke-width="0.5" stroke-miterlimit="10" x1="53.761" y1="0.829" x2="211.052" y2="54.996"/>
<line fill="none" stroke="#FFFFFF" stroke-width="0.5" stroke-miterlimit="10" x1="86.053" y1="0.829" x2="211.052" y2="62.402"/>
<line fill="none" stroke="#FFFFFF" stroke-width="0.5" stroke-miterlimit="10" x1="115.913" y1="0.829" x2="211.052" y2="77.289"/>
<line fill="none" stroke="#FFFFFF" stroke-width="0.5" stroke-miterlimit="10" x1="140.219" y1="0.829" x2="211.052" y2="89.718"/>
<line fill="none" stroke="#FFFFFF" stroke-width="0.5" stroke-miterlimit="10" x1="163.482" y1="0.829" x2="211.052" y2="97.589"/>
<line fill="none" stroke="#FFFFFF" stroke-width="0.5" stroke-miterlimit="10" x1="187.268" y1="0.829" x2="202.256" y2="97.589"/>
<line fill="none" stroke="#FFFFFF" stroke-width="0.5" stroke-miterlimit="10" x1="205.033" y1="0.829" x2="194.762" y2="97.589"/>
<line fill="none" stroke="#FFFFFF" stroke-width="0.5" stroke-miterlimit="10" x1="211.052" y1="34.625" x2="110.719" y2="97.589"/>
<line fill="none" stroke="#FFFFFF" stroke-width="0.5" stroke-miterlimit="10" x1="211.052" y1="68.885" x2="75.932" y2="97.589"/>
<line fill="none" stroke="#FFFFFF" stroke-width="0.5" stroke-miterlimit="10" x1="211.052" y1="83.235" x2="53.761" y2="97.589"/>
<line fill="none" stroke="#FFFFFF" stroke-width="0.5" stroke-miterlimit="10" x1="205.033" y1="97.589" x2="1.33" y2="45.273"/>
<line fill="none" stroke="#FFFFFF" stroke-width="0.5" stroke-miterlimit="10" x1="187.268" y1="97.589" x2="1.33" y2="23.051"/>
<line fill="none" stroke="#FFFFFF" stroke-width="0.5" stroke-miterlimit="10" x1="167.07" y1="97.589" x2="1.33" y2="5.921"/>
<line fill="none" stroke="#FFFFFF" stroke-width="0.5" stroke-miterlimit="10" x1="143.492" y1="97.589" x2="16.607" y2="0.829"/>
<line fill="none" stroke="#FFFFFF" stroke-width="0.5" stroke-miterlimit="10" x1="125.867" y1="97.589" x2="43.922" y2="0.829"/>
<line fill="none" stroke="#FFFFFF" stroke-width="0.5" stroke-miterlimit="10" x1="92.996" y1="97.589" x2="1.33" y2="64.255"/>
<line fill="none" stroke="#FFFFFF" stroke-width="0.5" stroke-miterlimit="10" x1="51.562" y1="97.589" x2="1.33" y2="85.089"/>
<line fill="none" stroke="#FFFFFF" stroke-width="0.5" stroke-miterlimit="10" x1="154.339" y1="0.829" x2="1.33" y2="39.059"/>
<line fill="none" stroke="#FFFFFF" stroke-width="0.5" stroke-miterlimit="10" x1="1.33" y1="60.32" x2="175.635" y2="0.829"/>
<line fill="none" stroke="#FFFFFF" stroke-width="0.5" stroke-miterlimit="10" x1="1.33" y1="71.431" x2="194.848" y2="0.829"/>
<line fill="none" stroke="#FFFFFF" stroke-width="0.5" stroke-miterlimit="10" x1="1.33" y1="80.921" x2="211.052" y2="5.921"/>
<line fill="none" stroke="#FFFFFF" stroke-width="0.5" stroke-miterlimit="10" x1="23.089" y1="97.589" x2="148.552" y2="0.829"/>
<line fill="none" stroke="#FFFFFF" stroke-width="0.5" stroke-miterlimit="10" x1="33.469" y1="97.589" x2="73.219" y2="0.829"/>
<line fill="none" stroke="#FFFFFF" stroke-width="0.5" stroke-miterlimit="10" x1="211.052" y1="26.523" x2="71.219" y2="97.589"/>
<line fill="none" stroke="#FFFFFF" stroke-width="0.5" stroke-miterlimit="10" x1="154.339" y1="97.589" x2="158.719" y2="0.829"/>
<line fill="none" stroke="#FFFFFF" stroke-width="0.5" stroke-miterlimit="10" x1="181.219" y1="0.829" x2="158.719" y2="97.589"/>
<line fill="none" stroke="#FFFFFF" stroke-width="0.5" stroke-miterlimit="10" x1="130.219" y1="0.671" x2="149.969" y2="97.589"/>
<line fill="none" stroke="#FFFFFF" stroke-width="0.5" stroke-miterlimit="10" x1="133.737" y1="97.589" x2="135.719" y2="0.671"/>
<line fill="none" stroke="#FFFFFF" stroke-width="0.5" stroke-miterlimit="10" x1="202.256" y1="0.671" x2="163.482" y2="97.589"/>
<line fill="none" stroke="#FFFFFF" stroke-width="0.5" stroke-miterlimit="10" x1="37.969" y1="0.829" x2="14.969" y2="97.589"/>
<line fill="none" stroke="#FFFFFF" stroke-width="0.5" stroke-miterlimit="10" x1="19.219" y1="97.589" x2="11.469" y2="0.829"/>
<line fill="none" stroke="#FFFFFF" stroke-width="0.5" stroke-miterlimit="10" x1="178.645" y1="0.829" x2="119.386" y2="97.589"/>
<line fill="none" stroke="#FFFFFF" stroke-width="0.5" stroke-miterlimit="10" x1="29.969" y1="97.589" x2="14.969" y2="0.829"/>
<line fill="none" stroke="#FFFFFF" stroke-width="0.5" stroke-miterlimit="10" x1="49.969" y1="0.829" x2="36.969" y2="97.589"/>
<polyline fill="none" stroke="#FFFFFF" stroke-width="0.5" stroke-miterlimit="10" points="130.219,97.589 97.626,0.671 
	199.897,0.829 106.19,97.589 "/>
<line fill="none" stroke="#FFFFFF" stroke-width="0.5" stroke-miterlimit="10" x1="137.719" y1="97.589" x2="211.052" y2="2.921"/>
<line fill="none" stroke="#FFFFFF" stroke-width="0.5" stroke-miterlimit="10" x1="75.932" y1="0.829" x2="94.299" y2="97.589"/>
<line fill="none" stroke="#FFFFFF" stroke-width="0.5" stroke-miterlimit="10" x1="31.969" y1="0.829" x2="55.969" y2="97.921"/>
<line fill="none" stroke="#FFFFFF" stroke-width="0.5" stroke-miterlimit="10" x1="106.189" y1="97.843" x2="211.051" y2="1.083"/>
<line fill="none" stroke="#FFFFFF" stroke-width="0.5" stroke-miterlimit="10" x1="171.236" y1="1.083" x2="101.662" y2="97.843"/>
<line fill="none" stroke="#FFFFFF" stroke-width="0.5" stroke-miterlimit="10" x1="98.551" y1="97.843" x2="149.94" y2="1.083"/>
<path fill="none" stroke="#FFFFFF" stroke-width="0.5" stroke-miterlimit="10" d="M211.051,21.453
	c0-2.777-100.463,76.39-100.463,76.39"/>
<line fill="none" stroke="#FFFFFF" stroke-width="0.5" stroke-miterlimit="10" x1="211.051" y1="43.675" x2="119.385" y2="97.843"/>
<line fill="none" stroke="#FFFFFF" stroke-width="0.5" stroke-miterlimit="10" x1="211.051" y1="66.361" x2="92.995" y2="97.843"/>
<line fill="none" stroke="#FFFFFF" stroke-width="0.5" stroke-miterlimit="10" x1="211.051" y1="87.657" x2="78.644" y2="97.843"/>
<polyline fill="none" stroke="#FFFFFF" stroke-width="0.5" stroke-miterlimit="10" points="1.329,46.453 191.606,97.843 
	171.687,43.748 "/>
<line fill="none" stroke="#FFFFFF" stroke-width="0.5" stroke-miterlimit="10" x1="158.62" y1="97.843" x2="1.329" y2="43.675"/>
<line fill="none" stroke="#FFFFFF" stroke-width="0.5" stroke-miterlimit="10" x1="126.328" y1="97.843" x2="1.329" y2="36.268"/>
<line fill="none" stroke="#FFFFFF" stroke-width="0.5" stroke-miterlimit="10" x1="96.468" y1="97.843" x2="1.329" y2="21.382"/>
<line fill="none" stroke="#FFFFFF" stroke-width="0.5" stroke-miterlimit="10" x1="72.162" y1="97.843" x2="1.329" y2="8.954"/>
<line fill="none" stroke="#FFFFFF" stroke-width="0.5" stroke-miterlimit="10" x1="48.898" y1="97.843" x2="1.329" y2="1.083"/>
<line fill="none" stroke="#FFFFFF" stroke-width="0.5" stroke-miterlimit="10" x1="25.113" y1="97.843" x2="10.125" y2="1.083"/>
<line fill="none" stroke="#FFFFFF" stroke-width="0.5" stroke-miterlimit="10" x1="7.348" y1="97.843" x2="17.619" y2="1.083"/>
<line fill="none" stroke="#FFFFFF" stroke-width="0.5" stroke-miterlimit="10" x1="1.329" y1="87.657" x2="33.736" y2="1.083"/>
<line fill="none" stroke="#FFFFFF" stroke-width="0.5" stroke-miterlimit="10" x1="1.329" y1="64.046" x2="101.662" y2="1.083"/>
<line fill="none" stroke="#FFFFFF" stroke-width="0.5" stroke-miterlimit="10" x1="1.329" y1="49.462" x2="114.755" y2="1.083"/>
<line fill="none" stroke="#FFFFFF" stroke-width="0.5" stroke-miterlimit="10" x1="1.329" y1="29.787" x2="136.449" y2="1.083"/>
<line fill="none" stroke="#FFFFFF" stroke-width="0.5" stroke-miterlimit="10" x1="1.329" y1="15.435" x2="158.62" y2="1.083"/>
<line fill="none" stroke="#FFFFFF" stroke-width="0.5" stroke-miterlimit="10" x1="7.348" y1="1.083" x2="211.051" y2="53.398"/>
<line fill="none" stroke="#FFFFFF" stroke-width="0.5" stroke-miterlimit="10" x1="25.113" y1="1.083" x2="211.051" y2="75.62"/>
<line fill="none" stroke="#FFFFFF" stroke-width="0.5" stroke-miterlimit="10" x1="45.311" y1="1.083" x2="211.051" y2="92.749"/>
<line fill="none" stroke="#FFFFFF" stroke-width="0.5" stroke-miterlimit="10" x1="68.889" y1="1.083" x2="195.773" y2="97.843"/>
<line fill="none" stroke="#FFFFFF" stroke-width="0.5" stroke-miterlimit="10" x1="119.385" y1="1.083" x2="211.051" y2="34.416"/>
<line fill="none" stroke="#FFFFFF" stroke-width="0.5" stroke-miterlimit="10" x1="160.819" y1="1.083" x2="211.051" y2="13.583"/>
<line fill="none" stroke="#FFFFFF" stroke-width="0.5" stroke-miterlimit="10" x1="58.042" y1="97.843" x2="211.051" y2="59.611"/>
<line fill="none" stroke="#FFFFFF" stroke-width="0.5" stroke-miterlimit="10" x1="211.051" y1="38.351" x2="36.746" y2="97.843"/>
<line fill="none" stroke="#FFFFFF" stroke-width="0.5" stroke-miterlimit="10" x1="211.051" y1="27.24" x2="17.533" y2="97.843"/>
<line fill="none" stroke="#FFFFFF" stroke-width="0.5" stroke-miterlimit="10" x1="211.051" y1="17.75" x2="1.329" y2="92.749"/>
<line fill="none" stroke="#FFFFFF" stroke-width="0.5" stroke-miterlimit="10" x1="189.292" y1="1.083" x2="63.829" y2="97.843"/>
<line fill="none" stroke="#FFFFFF" stroke-width="0.5" stroke-miterlimit="10" x1="178.912" y1="1.083" x2="139.162" y2="97.843"/>
<line fill="none" stroke="#FFFFFF" stroke-width="0.5" stroke-miterlimit="10" x1="1.329" y1="72.147" x2="141.162" y2="1.083"/>
<line fill="none" stroke="#FFFFFF" stroke-width="0.5" stroke-miterlimit="10" x1="58.042" y1="1.083" x2="53.662" y2="97.843"/>
<line fill="none" stroke="#FFFFFF" stroke-width="0.5" stroke-miterlimit="10" x1="31.162" y1="97.843" x2="53.662" y2="1.083"/>
<line fill="none" stroke="#FFFFFF" stroke-width="0.5" stroke-miterlimit="10" x1="82.162" y1="97.999" x2="62.412" y2="1.083"/>
<line fill="none" stroke="#FFFFFF" stroke-width="0.5" stroke-miterlimit="10" x1="78.644" y1="1.083" x2="76.662" y2="97.999"/>
<line fill="none" stroke="#FFFFFF" stroke-width="0.5" stroke-miterlimit="10" x1="10.125" y1="97.999" x2="48.898" y2="1.083"/>
<line fill="none" stroke="#FFFFFF" stroke-width="0.5" stroke-miterlimit="10" x1="174.412" y1="97.843" x2="197.412" y2="1.083"/>
<line fill="none" stroke="#FFFFFF" stroke-width="0.5" stroke-miterlimit="10" x1="193.162" y1="1.083" x2="200.912" y2="97.843"/>
<line fill="none" stroke="#FFFFFF" stroke-width="0.5" stroke-miterlimit="10" x1="33.736" y1="97.843" x2="92.995" y2="1.083"/>
<line fill="none" stroke="#FFFFFF" stroke-width="0.5" stroke-miterlimit="10" x1="182.412" y1="1.083" x2="197.412" y2="97.843"/>
<line fill="none" stroke="#FFFFFF" stroke-width="0.5" stroke-miterlimit="10" x1="162.412" y1="97.843" x2="175.412" y2="1.083"/>
<polyline fill="none" stroke="#FFFFFF" stroke-width="0.5" stroke-miterlimit="10" points="82.162,1.083 114.755,97.999 
	12.483,97.843 106.19,1.083 "/>
<line fill="none" stroke="#FFFFFF" stroke-width="0.5" stroke-miterlimit="10" x1="74.662" y1="1.083" x2="1.329" y2="95.749"/>
<line fill="none" stroke="#FFFFFF" stroke-width="0.5" stroke-miterlimit="10" x1="136.449" y1="97.843" x2="118.082" y2="1.083"/>
<line fill="none" stroke="#FFFFFF" stroke-width="0.5" stroke-miterlimit="10" x1="180.412" y1="97.843" x2="156.412" y2="0.75"/>
<line fill="none" stroke="#FFFFFF" stroke-width="0.5" stroke-miterlimit="10" x1="59.219" y1="53.398" x2="97.626" y2="97.999"/>
<line fill="none" stroke="#FFFFFF" stroke-width="0.5" stroke-miterlimit="10" x1="85.82" y1="58.672" x2="59.219" y2="97.091"/>
<line fill="none" stroke="#FFFFFF" stroke-width="0.5" stroke-miterlimit="10" x1="67.533" y1="51.755" x2="49.969" y2="97.921"/>
<line fill="none" stroke="#FFFFFF" stroke-width="0.5" stroke-miterlimit="10" x1="101.793" y1="51.755" x2="126.561" y2="0.829"/>
<line fill="none" stroke="#FFFFFF" stroke-width="0.5" stroke-miterlimit="10" x1="100.293" y1="54.996" x2="1.329" y2="41.671"/>
<line fill="none" stroke="#FFFFFF" stroke-width="0.5" stroke-miterlimit="10" x1="100.293" y1="43.421" x2="86.514" y2="97.237"/>
<line fill="none" stroke="#FFFFFF" stroke-width="0.5" stroke-miterlimit="10" x1="85.82" y1="43.675" x2="107.719" y2="0.671"/>
<line fill="none" stroke="#FFFFFF" stroke-width="0.5" stroke-miterlimit="10" x1="111.969" y1="48.333" x2="58.042" y2="97.921"/>
<line fill="none" stroke="#FFFFFF" stroke-width="0.5" stroke-miterlimit="10" x1="118.082" y1="43.421" x2="118.082" y2="97.589"/>
<line fill="none" stroke="#FFFFFF" stroke-width="0.5" stroke-miterlimit="10" x1="130.219" y1="58.127" x2="160.819" y2="97.237"/>
<line fill="none" stroke="#FFFFFF" stroke-width="0.5" stroke-miterlimit="10" x1="158.62" y1="62.056" x2="211.515" y2="56.922"/>
<line fill="none" stroke="#FFFFFF" stroke-width="0.5" stroke-miterlimit="10" x1="158.402" y1="43.675" x2="1.33" y2="58.127"/>
<line fill="none" stroke="#FFFFFF" stroke-width="0.5" stroke-miterlimit="10" x1="113.83" y1="62.056" x2="42.412" y2="0.671"/>
<polyline fill="none" stroke="#FFFFFF" stroke-width="0.5" stroke-miterlimit="10" points="48.898,41.671 39.912,1.083 
	132.331,97.999 "/>
<line fill="none" stroke="#FFFFFF" stroke-width="0.5" stroke-miterlimit="10" x1="171.236" y1="56.922" x2="211.051" y2="30.574"/>
<line fill="none" stroke="#FFFFFF" stroke-width="0.5" stroke-miterlimit="10" x1="141.162" y1="46.916" x2="211.051" y2="19.944"/>
<line fill="none" stroke="#FFFFFF" stroke-width="0.5" stroke-miterlimit="10" x1="37.969" y1="59.612" x2="0.867" y2="87.657"/>
<line fill="none" stroke="#FFFFFF" stroke-width="0.5" stroke-miterlimit="10" x1="49.969" y1="62.056" x2="57.613" y2="97.237"/>
<polyline fill="none" stroke="#FFFFFF" stroke-width="0.5" stroke-miterlimit="10" points="211.052,52.218 20.774,0.829 
	39.912,43.421 1.33,51.755 49.969,41.297 63.829,0.671 "/>
<polyline fill="none" stroke="#FFFFFF" stroke-width="0.5" stroke-miterlimit="10" points="42.064,41.671 1.329,17.75 
	135.719,41.671 120.969,0.671 "/>
<line fill="none" stroke="#FFFFFF" stroke-width="0.5" stroke-miterlimit="10" x1="85.115" y1="62.786" x2="84.2" y2="97.415"/>
<line fill="none" stroke="#FFFFFF" stroke-width="0.5" stroke-miterlimit="10" x1="113.83" y1="62.056" x2="94.6" y2="97.415"/>
<line fill="none" stroke="#FFFFFF" stroke-width="0.5" stroke-miterlimit="10" x1="100.293" y1="44.37" x2="115.913" y2="0.671"/>
<line fill="none" stroke="#FFFFFF" stroke-width="0.5" stroke-miterlimit="10" x1="140.094" y1="36.129" x2="162.412" y2="1.479"/>
<line fill="none" stroke="#FFFFFF" stroke-width="0.5" stroke-miterlimit="10" x1="146.771" y1="62.786" x2="177.469" y2="97.921"/>
<line fill="none" stroke="#FFFFFF" stroke-width="0.5" stroke-miterlimit="10" x1="112.625" y1="45.273" x2="1.33" y2="34.416"/>
<line fill="none" stroke="#FFFFFF" stroke-width="0.5" stroke-miterlimit="10" x1="121.969" y1="62.786" x2="146.771" y2="97.589"/>
<line fill="none" stroke="#FFFFFF" stroke-width="0.5" stroke-miterlimit="10" x1="160.885" y1="53.398" x2="156.529" y2="97.589"/>
<polyline fill="none" stroke="#FFFFFF" stroke-width="0.5" stroke-miterlimit="10" points="162.412,52.218 168.458,97.843 
	86.514,1.083 "/>
<line fill="none" stroke="#FFFFFF" stroke-width="0.5" stroke-miterlimit="10" x1="110.719" y1="46.916" x2="47.163" y2="0.671"/>
<line fill="none" stroke="#FFFFFF" stroke-width="0.5" stroke-miterlimit="10" x1="69.127" y1="58.672" x2="55.969" y2="97.415"/>
<line fill="none" stroke="#FFFFFF" stroke-width="0.5" stroke-miterlimit="10" x1="69.162" y1="62.056" x2="68.889" y2="97.999"/>
<line fill="none" stroke="#FFFFFF" stroke-width="0.5" stroke-miterlimit="10" x1="104.215" y1="58.672" x2="211.052" y2="41.671"/>
<line fill="#FFFFFF" stroke="#FFFFFF" stroke-width="0.5" stroke-miterlimit="10" x1="122.114" y1="41.671" x2="113.83" y2="0.671"/>
<line fill="#FFFFFF" stroke="#FFFFFF" stroke-width="0.5" stroke-miterlimit="10" x1="119.386" y1="41.671" x2="132.406" y2="1.083"/>
<line fill="#FFFFFF" stroke="#FFFFFF" stroke-width="0.5" stroke-miterlimit="10" x1="125.896" y1="42.247" x2="137.719" y2="1.083"/>
<line fill="#FFFFFF" stroke="#FFFFFF" stroke-width="0.5" stroke-miterlimit="10" x1="36.969" y1="56.078" x2="1.329" y2="66.361"/>
<line fill="#FFFFFF" stroke="#FFFFFF" stroke-width="0.5" stroke-miterlimit="10" x1="21.219" y1="97.415" x2="37.996" y2="59.488"/>
<line fill="#FFFFFF" stroke="#FFFFFF" stroke-width="0.5" stroke-miterlimit="10" x1="39.912" y1="52.54" x2="1.33" y2="90.411"/>
<line fill="#FFFFFF" stroke="#FFFFFF" stroke-width="0.5" stroke-miterlimit="10" x1="82.162" y1="56.922" x2="27.969" y2="97.415"/>
<polyline fill="none" stroke="#FFFFFF" stroke-width="0.5" stroke-miterlimit="10" points="91.209,43.421 97.626,97.589 
	211.052,49.208 140.219,49.462 "/>
<line fill="none" stroke="#FFFFFF" stroke-width="0.5" stroke-miterlimit="10" x1="93.403" y1="42.247" x2="95.719" y2="97.921"/>
<line fill="none" stroke="#FFFFFF" stroke-width="0.5" stroke-miterlimit="10" x1="97.626" y1="43.421" x2="78.644" y2="97.013"/>
<line fill="none" stroke="#FFFFFF" stroke-width="0.5" stroke-miterlimit="10" x1="113.83" y1="49.208" x2="89.219" y2="97.921"/>
<line fill="none" stroke="#FFFFFF" stroke-width="0.5" stroke-miterlimit="10" x1="103.182" y1="51.755" x2="143.492" y2="0.671"/>
<line fill="none" stroke="#FFFFFF" stroke-width="0.5" stroke-miterlimit="10" x1="211.051" y1="80.421" x2="174.412" y2="61.22"/>
<line fill="none" stroke="#FFFFFF" stroke-width="0.5" stroke-miterlimit="10" x1="206.719" y1="97.589" x2="171.236" y2="59.488"/>
<line fill="none" stroke="#FFFFFF" stroke-width="0.5" stroke-miterlimit="10" x1="208.969" y1="97.921" x2="171.687" y2="62.541"/>
<polyline fill="none" stroke="#FFFFFF" stroke-width="0.5" stroke-miterlimit="10" points="169.969,56.922 172.469,97.589 
	80.05,0.671 "/>
<line fill="none" stroke="#FFFFFF" stroke-width="0.5" stroke-miterlimit="10" x1="211.051" y1="64.255" x2="171.687" y2="58.127"/>
<line fill="none" stroke="#FFFFFF" stroke-width="0.5" stroke-miterlimit="10" x1="211.052" y1="72.147" x2="128.181" y2="97.415"/>
<line fill="#FFFFFF" stroke="#FFFFFF" stroke-width="0.5" stroke-miterlimit="10" x1="140.094" y1="33.054" x2="145.52" y2="0.671"/>
<polyline fill="none" stroke="#FFFFFF" stroke-width="0.5" stroke-miterlimit="10" points="156.412,30.574 153.322,1.083 
	140.219,36.129 "/>
<line fill="none" stroke="#FFFFFF" stroke-width="0.5" stroke-miterlimit="10" x1="135.719" y1="41.921" x2="96.468" y2="1.083"/>
<line fill="none" stroke="#FFFFFF" stroke-width="0.5" stroke-miterlimit="10" x1="191.369" y1="0.671" x2="174.412" y2="40.607"/>
<polyline fill="none" stroke="#FFFFFF" stroke-width="0.5" stroke-miterlimit="10" points="174.032,42.247 211.052,11.014 
	178.645,97.589 "/>
<polyline fill="none" stroke="#FFFFFF" stroke-width="0.5" stroke-miterlimit="10" points="137.719,56.922 5.219,97.589 
	39.912,41.671 "/>
<line fill="none" stroke="#FFFFFF" stroke-width="0.5" stroke-miterlimit="10" x1="68.523" y1="54.996" x2="1.33" y2="62.403"/>
<polyline fill="none" stroke="#FFFFFF" stroke-width="0.5" stroke-miterlimit="10" points="74.662,43.421 66.469,1.083 
	111.969,44.37 "/>
<line fill="none" stroke="#FFFFFF" stroke-width="0.5" stroke-miterlimit="10" x1="167.07" y1="0.829" x2="159.037" y2="34.416"/>
<line fill="#FFFFFF" stroke="#FFFFFF" stroke-width="0.5" stroke-miterlimit="10" x1="25.113" y1="41.921" x2="0.867" y2="35.562"/>
<line fill="none" stroke="#FFFFFF" stroke-width="0.5" stroke-miterlimit="10" x1="25.113" y1="1.479" x2="25.113" y2="98"/>
<rect x="0.867" y="26.301" fill="none" width="210.647" height="66.204"/>
<text transform="matrix(1 0 0 1 19.457 66.4512)" fill="#FFFFFF" font-family="'Raleway-Bold'" font-size="55" letter-spacing="2">amstk</text>
</svg>
