<?xml version="1.0" encoding="UTF-8" standalone="no"?>
<svg width="343px" height="117px" viewBox="0 0 343 117" version="1.1" xmlns="http://www.w3.org/2000/svg" xmlns:xlink="http://www.w3.org/1999/xlink" xmlns:sketch="http://www.bohemiancoding.com/sketch/ns">
    <!-- Generator: bin/sketchtool 1.4 (305) - http://www.bohemiancoding.com/sketch -->
    <title>boeinglogo</title>
    <desc>Created with bin/sketchtool.</desc>
    <defs></defs>
    <g id="Welcome" stroke="none" stroke-width="1" fill="none" fill-rule="evenodd" sketch:type="MSPage">
        <g id="Desktop-HD" sketch:type="MSArtboardGroup" transform="translate(-180.000000, -1847.000000)">
            <g id="Amstck" sketch:type="MSLayerGroup" transform="translate(-56.000000, 0.000000)">
                <g id="Clients/Work" transform="translate(0.000000, 1272.000000)">
                    <g id="Client-Logos" transform="translate(0.000000, 155.000000)">
                        <g id="boeinglogo" transform="translate(173.000000, 420.000000)">
                            <g>
                                <path d="M405.775178,19.4081481 C405.775178,21.5239506 404.108439,23.1844568 401.939558,23.1844568 C399.793277,23.1844568 398.080867,21.5239506 398.080867,19.4081481 C398.080867,17.3378519 399.793042,15.6771111 401.939558,15.6771111 C404.108439,15.6771111 405.775178,17.3378519 405.775178,19.4081481 L405.775178,19.4081481 Z M399.039713,19.4081481 C399.039713,21.0688889 400.272818,22.3883333 401.962158,22.3883333 C403.606062,22.3883333 404.816332,21.0688889 404.816332,19.4309012 C404.816332,17.7701605 403.606062,16.427963 401.939558,16.427963 C400.272818,16.427963 399.039713,17.7701605 399.039713,19.4081481 L399.039713,19.4081481 Z M401.345605,21.364679 L400.4781,21.364679 L400.4781,17.633642 C401.081234,17.5135432 402.529038,17.3927407 403.217627,17.7929136 C403.66162,18.1365556 403.879615,19.1559877 402.806592,19.4764074 L402.806592,19.5219136 C403.65291,19.8378765 403.432326,20.8669259 403.765909,21.364679 L402.829663,21.364679 C402.715487,21.2281605 402.646981,20.8868642 402.532804,20.4545556 C402.422159,19.7937778 401.913898,19.8632099 401.34537,19.8632099 L401.34537,21.364679 L401.345605,21.364679 Z M401.368676,19.2488765 L401.779476,19.2488765 C402.259016,19.2488765 402.647216,19.0896049 402.647216,18.7028025 C402.647216,18.3617407 402.396264,18.1342099 401.847981,18.1342099 C401.619393,18.1342099 401.460017,18.156963 401.368676,18.179716 L401.368676,19.2488765 L401.368676,19.2488765 Z" id="Shape" fill="#C0C2C4" sketch:type="MSShapeGroup"></path>
                                <path d="M89.6153404,8.38017284 C74.9162485,8.38017284 63,20.2530617 63,34.8994815 C63,49.5456667 74.9162485,61.4190247 89.6153404,61.4190247 C104.314432,61.4190247 116.230681,49.5459012 116.230681,34.8994815 C116.230681,20.2530617 104.314432,8.38017284 89.6153404,8.38017284 M89.6153404,57.9811975 C76.670092,57.9811975 66.1757515,47.6473086 66.1757515,34.899716 C66.1757515,22.1521235 76.670092,11.8182346 89.6153404,11.8182346 C102.560589,11.8182346 113.054929,22.1521235 113.054929,34.899716 C113.054929,47.6473086 102.560589,57.9811975 89.6153404,57.9811975" id="Shape" fill="#C0C2C4" sketch:type="MSShapeGroup"></path>
                                <path d="M192.57184,16.0793951 L162.232466,16.0793951 L141.35396,43.5088272 L172.896305,43.5088272 C176.883062,43.5088272 180.64029,41.649642 183.049529,38.4846173 L185.951728,34.671716 C186.880677,33.4510247 186.74908,31.7314074 185.644747,30.6655309 L185.426046,30.4541852 C188.267743,29.814284 190.791159,28.1950617 192.55183,25.8822222 L195.552197,22.0585309 C197.420452,19.6042469 195.663313,16.0793951 192.57184,16.0793951 M171.386588,33.9077284 L169.284094,36.6697654 C168.764533,37.352358 167.954469,37.7532346 167.094732,37.7532346 L160.690732,37.7532346 L164.733047,32.4423827 L170.656094,32.4423827 C171.413896,32.4423827 171.844706,33.3060617 171.386588,33.9077284 M179.443674,23.3223827 L177.749861,25.5477284 C177.186277,26.2880247 176.307708,26.7229136 175.374992,26.7229136 L169.086581,26.7229136 L172.829683,21.8051975 L178.68752,21.8051975 C179.471924,21.8051975 179.918036,22.6996049 179.443674,23.3223827" id="Shape" fill="#C0C2C4" sketch:type="MSShapeGroup"></path>
                                <path d="M238.493819,16.0793951 L214.389889,16.0793951 C210.345455,16.0793951 206.534082,17.965321 204.090001,21.1760864 L191.637242,37.5364938 C189.771105,39.9881975 191.526126,43.5088272 194.614067,43.5088272 L218.612767,43.5088272 C222.723588,43.5088272 226.597346,41.5919383 229.081447,38.3283951 L241.470645,22.0517284 C243.336546,19.6002593 241.581761,16.0793951 238.493819,16.0793951 M225.36683,23.506284 L215.586975,36.3547407 C214.916513,37.2357778 213.870563,37.7532346 212.760815,37.7532346 L208.563597,37.7532346 C207.818743,37.7532346 207.395467,36.9040988 207.845581,36.3127531 L217.887924,23.1194815 C218.51813,22.2914568 219.500989,21.8051975 220.543879,21.8051975 L224.518865,21.8051975 C225.398376,21.8051975 225.898163,22.8079753 225.36683,23.506284" id="Shape" fill="#C0C2C4" sketch:type="MSShapeGroup"></path>
                                <path d="M284.751736,16.0793951 L254.589159,16.0793951 L233.710653,43.5092963 L263.87323,43.5092963 C263.87323,43.5092963 268.435577,37.7534691 268.254072,37.7534691 L253.120639,37.7534691 L257.163189,32.4423827 L272.296858,32.4423827 L276.628027,26.7261975 L261.516723,26.7229136 L265.25959,21.8051975 L280.227997,21.8051975 L284.751736,16.0793951 L284.751736,16.0793951 Z" id="Shape" fill="#C0C2C4" sketch:type="MSShapeGroup"></path>
                                <path d="M293.148292,16.0793951 L308.322922,16.0793951 L287.444416,43.5090617 L272.26955,43.5090617 L293.148292,16.0793951 Z" id="Shape" fill="#C0C2C4" sketch:type="MSShapeGroup"></path>
                                <path d="M332.500303,43.5088272 L320.512959,43.5088272 L317.43514,29.7943457 L306.995887,43.5088272 L296.91729,43.5088272 L317.795561,16.0791605 L329.517592,16.0791605 L332.6432,29.9085802 L343.169321,16.0791605 L353.379045,16.0791605 L332.500303,43.5088272 Z" id="Shape" fill="#C0C2C4" sketch:type="MSShapeGroup"></path>
                                <path d="M377.517111,25.5242716 L392.725406,25.5242716 L395.231165,22.2328148 C397.153802,19.7067531 395.345342,16.0793951 392.16394,16.0793951 L368.38041,16.0793951 C364.275239,16.0793951 360.406189,17.9937037 357.925384,21.2530247 L345.643771,37.3884815 C343.731493,39.9009383 345.530065,43.5088272 348.694281,43.5088272 L372.260288,43.5088272 C376.529073,43.5088272 380.551848,41.5180494 383.131528,38.1287778 L385.904485,34.4857037 L389.275866,34.4857037 L393.700025,28.7118148 L375.090921,28.7118148 L369.200361,36.4509136 C368.57604,37.2711975 367.602362,37.753 366.568889,37.753 L362.416871,37.753 C361.610809,37.753 361.152691,36.833963 361.639765,36.1940617 L371.559928,23.161 C372.21038,22.3069383 373.224314,21.804963 374.300632,21.804963 L378.405803,21.804963 C379.20339,21.804963 379.656329,22.7141481 379.174905,23.3470123 L377.517111,25.5242716 L377.517111,25.5242716 Z" id="Shape" fill="#C0C2C4" sketch:type="MSShapeGroup"></path>
                                <path d="M155.386826,53.6792222 C135.983432,54.184716 118.282795,54.9339259 109.159043,55.5513086 L99.475943,37.3891852 C117.283458,54.5740988 156.023154,51.576321 155.386826,53.6792222" id="Shape" fill="#C0C2C4" sketch:type="MSShapeGroup"></path>
                                <path d="M73.3457934,68.9251975 C70.0457426,66.0083457 72.3306829,56.4672963 80.0282903,43.8003951 C96.072545,17.3988395 118.082222,0 118.082222,0 C101.232612,10.0880617 91.6246095,20.1369506 83.4455779,30.1595679 C66.5943198,50.8090494 61.0813658,70.2589506 68.1986747,75.2435185 C71.2018668,77.3468889 81.4497275,75.0474198 89.6294653,62.7478519 C84.9936685,66.8600617 76.9709526,72.1296296 73.3457934,68.9251975" id="Shape" fill="#C0C2C4" sketch:type="MSShapeGroup"></path>
                                <text id="Production-|-Design" sketch:type="MSTextLayer" font-family="Raleway" font-size="24" font-weight="260" sketch:alignment="middle" fill="#9B9B9B">
                                    <tspan x="127.860219" y="111">Production | Design</tspan>
                                </text>
                            </g>
                        </g>
                    </g>
                </g>
            </g>
        </g>
    </g>
</svg>