<?xml version="1.0" encoding="utf-8"?>
<!-- Generator: Adobe Illustrator 15.1.0, SVG Export Plug-In  -->
<!DOCTYPE svg PUBLIC "-//W3C//DTD SVG 1.1//EN" "http://www.w3.org/Graphics/SVG/1.1/DTD/svg11.dtd" [
	<!ENTITY ns_flows "http://ns.adobe.com/Flows/1.0/">
]>
<svg version="1.1"
	 xmlns="http://www.w3.org/2000/svg" xmlns:xlink="http://www.w3.org/1999/xlink" xmlns:a="http://ns.adobe.com/AdobeSVGViewerExtensions/3.0/"
	 x="0px" y="0px" width="1475px" height="337px" viewBox="-12.133 -6.64 1475 337"
	 overflow="visible" enable-background="new -12.133 -6.64 1475 337" xml:space="preserve">
<defs>
</defs>
<path fill="#C0C2C4" d="M1456.045,82.74c0,9.02-7.08,16.099-16.293,16.099c-9.117,0-16.391-7.079-16.391-16.099
	c0-8.826,7.273-15.906,16.391-15.906C1448.965,66.834,1456.045,73.914,1456.045,82.74 M1427.434,82.74
	c0,7.08,5.238,12.705,12.414,12.705c6.983,0,12.124-5.625,12.124-12.608c0-7.08-5.141-12.802-12.22-12.802
	C1432.672,70.035,1427.434,75.757,1427.434,82.74 M1437.229,91.081h-3.685V75.175c2.562-0.512,8.712-1.027,11.637,0.679
	c1.886,1.465,2.812,5.811-1.746,7.177v0.194c3.595,1.347,2.658,5.734,4.075,7.856h-3.977c-0.485-0.582-0.776-2.037-1.261-3.88
	c-0.47-2.817-2.629-2.521-5.044-2.521V91.081z M1437.327,82.061h1.745c2.037,0,3.686-0.679,3.686-2.328
	c0-1.454-1.066-2.424-3.395-2.424c-0.971,0-1.648,0.097-2.036,0.194V82.061z"/>
<path fill="#C0C2C4" d="M113.057,35.726C50.618,35.726,0,86.342,0,148.782c0,62.439,50.618,113.057,113.057,113.057
	s113.057-50.617,113.057-113.057C226.114,86.342,175.496,35.726,113.057,35.726 M113.057,247.183
	c-54.989,0-99.567-44.055-99.567-98.4c0-54.345,44.578-98.4,99.567-98.4c54.989,0,99.567,44.055,99.567,98.4
	C212.624,203.128,168.046,247.183,113.057,247.183"/>
<path fill="#C0C2C4" d="M550.397,68.549H421.521l-88.688,116.936h133.986c16.935,0,32.895-7.926,43.129-21.419l12.328-16.255
	c3.946-5.204,3.387-12.535-1.304-17.079l-0.929-0.901c12.071-2.728,22.79-9.631,30.269-19.491l12.745-16.301
	C570.993,83.576,563.529,68.549,550.397,68.549 M460.406,144.554l-8.931,11.775c-2.207,2.91-5.648,4.619-9.3,4.619h-27.203
	l17.171-22.641h25.16C460.522,138.307,462.352,141.989,460.406,144.554 M494.631,99.427l-7.195,9.487
	c-2.394,3.156-6.126,5.01-10.088,5.01h-26.712l15.9-20.965h24.883C494.751,92.959,496.646,96.772,494.631,99.427"/>
<path fill="#C0C2C4" d="M745.465,68.549H643.076c-17.18,0-33.37,8.04-43.752,21.728l-52.897,69.747
	c-7.927,10.452-0.472,25.461,12.645,25.461h101.942c17.462,0,33.917-8.172,44.469-22.085l52.627-69.39
	C766.036,83.559,758.582,68.549,745.465,68.549 M689.704,100.211l-41.543,54.775c-2.848,3.756-7.291,5.962-12.005,5.962h-17.829
	c-3.164,0-4.962-3.62-3.05-6.141l42.658-56.245c2.677-3.53,6.852-5.603,11.282-5.603h16.885
	C689.838,92.959,691.961,97.234,689.704,100.211"/>
<path fill="#C0C2C4" d="M941.96,68.549H813.835l-88.688,116.938h128.125c0,0,19.38-24.538,18.609-24.538h-64.284l17.172-22.642
	h64.285l18.398-24.369l-64.19-0.014l15.899-20.965h63.583L941.96,68.549z"/>
<polygon fill="#C0C2C4" points="977.627,68.549 1042.086,68.549 953.398,185.486 888.938,185.486 "/>
<polygon fill="#C0C2C4" points="1144.787,185.485 1093.867,185.485 1080.793,127.018 1036.449,185.485 993.637,185.485 
	1082.324,68.548 1132.117,68.548 1145.394,127.505 1190.107,68.548 1233.476,68.548 "/>
<path fill="#C0C2C4" d="M1336.01,108.814h64.602l10.644-14.032c8.167-10.769,0.485-26.233-13.029-26.233h-101.028
	c-17.438,0-33.873,8.161-44.411,22.056l-52.17,68.788c-8.123,10.711-0.483,26.092,12.958,26.092h100.104
	c18.133,0,35.221-8.487,46.179-22.936l11.779-15.531h14.321l18.793-24.615h-79.048l-25.022,32.993
	c-2.652,3.497-6.788,5.551-11.178,5.551h-17.637c-3.424,0-5.37-3.918-3.301-6.646l42.139-55.562
	c2.763-3.641,7.07-5.781,11.642-5.781h17.438c3.388,0,5.312,3.876,3.267,6.574L1336.01,108.814z"/>
<path fill="#C0C2C4" d="M392.442,228.843c-82.422,2.155-157.611,5.349-196.367,7.981l-41.132-77.428
	C230.586,232.658,395.145,219.878,392.442,228.843"/>
<path fill="#C0C2C4" d="M43.947,293.839c-14.018-12.435-4.312-53.11,28.386-107.111C140.486,74.174,233.979,0,233.979,0
	C162.405,43.007,121.592,85.847,86.849,128.575C15.268,216.607-8.15,299.525,22.083,320.775
	c12.757,8.967,56.288-0.836,91.034-53.271C93.425,285.035,59.346,307.5,43.947,293.839"/>
</svg>
