<?xml version="1.0" encoding="utf-8"?>
<!-- Generator: Adobe Illustrator 15.1.0, SVG Export Plug-In  -->
<!DOCTYPE svg PUBLIC "-//W3C//DTD SVG 1.1//EN" "http://www.w3.org/Graphics/SVG/1.1/DTD/svg11.dtd" [
	<!ENTITY ns_flows "http://ns.adobe.com/Flows/1.0/">
]>
<svg version="1.1"
	 xmlns="http://www.w3.org/2000/svg" xmlns:xlink="http://www.w3.org/1999/xlink" xmlns:a="http://ns.adobe.com/AdobeSVGViewerExtensions/3.0/"
	 x="0px" y="0px" width="360px" height="360px" viewBox="-78.813 -110.126 360 360"
	 overflow="visible" enable-background="new -78.813 -110.126 360 360" xml:space="preserve">
<defs>
</defs>
<path fill="#C0C2C4" d="M58.685,52.982c0,0,7.295,20.457,37.014,16.059l0,0l0,0c-0.383-0.166-0.728-0.35-1.105-0.521
	c-3.668-1.834-15.724-8.631-21.883-21.518c-5.465-13.193-2.471-26.697-1.372-30.654c0.114-0.396,0.214-0.773,0.345-1.17
	l-0.007,0.002l0.007-0.006C49.784,33.158,58.685,52.982,58.685,52.982L58.685,52.982z"/>
<path fill="#C0C2C4" d="M76.576,73.263c9.834,4.324,21.142,4.402,31.287-0.121c12.898-5.748,21.566-17.941,22.801-31.965
	l-10.709,4.803c-1.801,11.465-9.158,21.098-19.773,25.83C92.685,75.152,84.349,75.593,76.576,73.263z"/>
<path fill="#C0C2C4" d="M72.864,9.812c10.65-4.644,22.724-3.579,32.405,2.831l10.775-4.677C104.851-0.576,90.009-2.404,77.064,3.24
	c-10.18,4.445-17.755,12.841-21.19,23.025C59.394,18.953,65.345,13.091,72.864,9.812z"/>
<path fill="#C0C2C4" d="M7.62,111.211c-4.21,0-7.62-3.534-7.62-7.893c0-4.417,3.41-8.01,7.62-8.01c3.38,0,6.019,2.002,7.056,5.064
	H13.49c-0.979-2.414-3.143-3.946-5.87-3.946c-3.587,0-6.522,3.093-6.522,6.892c0,3.74,2.935,6.803,6.522,6.803
	c2.816,0,4.981-1.531,5.9-3.976h1.156C13.667,109.208,11,111.211,7.62,111.211z"/>
<path fill="#C0C2C4" d="M36.141,110.858c-0.267-0.56-0.415-1.267-0.415-2.209v-0.294c-1.215,1.708-3.558,2.768-6.582,2.768
	c-2.668,0-5.544-1.325-5.544-4.24c0-3.445,3.232-4.241,6.493-4.535c3.38-0.324,5.633-0.678,5.633-2.533
	c0-2.797-2.668-3.445-4.921-3.445c-2.787,0-4.625,1.148-5.277,3.21H24.4c0.682-2.709,2.965-4.27,6.404-4.27
	c3.825,0,6.019,1.648,6.019,4.505v8.57c0,0.766,0.208,1.885,0.445,2.474H36.141z M35.726,101.875
	c-1.186,1.09-3.409,1.296-5.514,1.473c-3.914,0.383-5.426,1.414-5.426,3.505c0,2.503,2.846,3.181,4.358,3.181
	c3.291,0,6.582-1.473,6.582-4.683V101.875z"/>
<path fill="#C0C2C4" d="M48.623,105.616c0,2.592,1.216,4.358,4.121,4.241v1.001c-3.291,0.295-5.218-1.855-5.218-5.242v-8.835H45.45
	v-1.089h2.076v-3.24h1.097v3.24h4.121v1.089h-4.121V105.616z"/>
<path fill="#C0C2C4" d="M73.882,110.858c-0.267-0.56-0.415-1.267-0.415-2.209v-0.294c-1.215,1.708-3.558,2.768-6.582,2.768
	c-2.668,0-5.544-1.325-5.544-4.24c0-3.445,3.232-4.241,6.493-4.535c3.38-0.324,5.633-0.678,5.633-2.533
	c0-2.797-2.668-3.445-4.921-3.445c-2.787,0-4.625,1.148-5.277,3.21h-1.126c0.682-2.709,2.965-4.27,6.404-4.27
	c3.825,0,6.019,1.648,6.019,4.505v8.57c0,0.766,0.208,1.885,0.445,2.474H73.882z M73.467,101.875
	c-1.186,1.09-3.409,1.296-5.514,1.473c-3.914,0.383-5.426,1.414-5.426,3.505c0,2.503,2.846,3.181,4.358,3.181
	c3.291,0,6.582-1.473,6.582-4.683V101.875z"/>
<path fill="#C0C2C4" d="M108.333,110.858h-1.097v-9.777c0-2.709-1.986-4.653-4.714-4.653c-2.698,0-4.685,1.944-4.685,4.653v9.777
	h-1.097v-9.777c0-2.709-1.986-4.653-4.714-4.653c-2.698,0-4.685,1.944-4.685,4.653v9.777h-1.097V95.692h1.097v2.061
	c0.949-1.502,2.609-2.443,4.685-2.443c2.49,0,4.477,1.325,5.336,3.356c0.8-2.031,2.698-3.356,5.159-3.356
	c3.38,0,5.811,2.443,5.811,5.771V110.858z"/>
<path fill="#C0C2C4" d="M129.146,110.858c-0.267-0.56-0.415-1.267-0.415-2.209v-0.294c-1.216,1.708-3.558,2.768-6.582,2.768
	c-2.668,0-5.544-1.325-5.544-4.24c0-3.445,3.231-4.241,6.493-4.535c3.38-0.324,5.633-0.678,5.633-2.533
	c0-2.797-2.668-3.445-4.922-3.445c-2.786,0-4.625,1.148-5.276,3.21h-1.127c0.682-2.709,2.965-4.27,6.403-4.27
	c3.825,0,6.019,1.648,6.019,4.505v8.57c0,0.766,0.208,1.885,0.445,2.474H129.146z M128.731,101.875
	c-1.186,1.09-3.409,1.296-5.515,1.473c-3.913,0.383-5.425,1.414-5.425,3.505c0,2.503,2.846,3.181,4.357,3.181
	c3.291,0,6.582-1.473,6.582-4.683V101.875z"/>
<path fill="#C0C2C4" d="M148.09,96.369c-2.016-0.177-3.558,0.383-4.507,1.296c-1.097,0.972-1.689,2.444-1.689,4.034v9.159h-1.127
	V95.692h1.127v2.532c0.267-0.501,0.593-0.972,1.008-1.354c1.334-1.178,3.113-1.737,5.188-1.502V96.369z"/>
<path fill="#C0C2C4" d="M168.043,110.858c-0.267-0.56-0.415-1.267-0.415-2.209v-0.294c-1.216,1.708-3.558,2.768-6.582,2.768
	c-2.668,0-5.544-1.325-5.544-4.24c0-3.445,3.231-4.241,6.493-4.535c3.38-0.324,5.633-0.678,5.633-2.533
	c0-2.797-2.668-3.445-4.922-3.445c-2.786,0-4.625,1.148-5.277,3.21h-1.126c0.682-2.709,2.965-4.27,6.403-4.27
	c3.825,0,6.019,1.648,6.019,4.505v8.57c0,0.766,0.208,1.885,0.445,2.474H168.043z M167.628,101.875
	c-1.186,1.09-3.409,1.296-5.515,1.473c-3.913,0.383-5.425,1.414-5.425,3.505c0,2.503,2.846,3.181,4.357,3.181
	c3.291,0,6.582-1.473,6.582-4.683V101.875z"/>
<path fill="#C0C2C4" d="M192.504,110.858h-1.097v-9.159c0-3.327-1.809-5.33-5.159-5.33c-3.083,0-5.484,2.268-5.484,5.33v9.159
	h-1.098V95.692h1.098v2.562c1.097-1.796,3.083-2.944,5.514-2.944c3.914,0,6.227,2.443,6.227,6.39V110.858z"/>
<path display="none" fill="#781D7E" d="M197.347,93.035v2.47h-0.342v-2.47h-0.879v-0.326h2.1v0.326H197.347z"/>
<path display="none" fill="#781D7E" d="M201.529,95.504h-0.342v-2.341l-0.818,2.341h-0.365l-0.818-2.341v2.341h-0.342v-2.796h0.523
	l0.822,2.356l0.82-2.356h0.52V95.504z"/>
<path fill="#C0C2C4" d="M199.232,96.481c-1.306,0-2.369-1.068-2.369-2.374c0-1.312,1.063-2.374,2.369-2.374
	c1.305,0,2.374,1.062,2.374,2.374C201.606,95.413,200.537,96.481,199.232,96.481z M199.232,91.962c-1.174,0-2.126,0.956-2.126,2.145
	c0,1.181,0.952,2.138,2.126,2.138c1.173,0,2.132-0.957,2.132-2.138C201.364,92.918,200.405,91.962,199.232,91.962z M200.339,95.425
	h-0.281l-0.604-1.096h-0.859v1.096h-0.242v-2.63h1.18c0.513,0,0.82,0.289,0.82,0.767c0,0.399-0.256,0.688-0.644,0.754
	L200.339,95.425z M199.533,93.031h-0.938v1.062h0.951c0.282,0,0.563-0.163,0.563-0.531C200.11,93.096,199.75,93.031,199.533,93.031z
	"/>
</svg>
