<?xml version="1.0" encoding="utf-8"?>
<!-- Generator: Adobe Illustrator 15.1.0, SVG Export Plug-In  -->
<!DOCTYPE svg PUBLIC "-//W3C//DTD SVG 1.1//EN" "http://www.w3.org/Graphics/SVG/1.1/DTD/svg11.dtd" [
	<!ENTITY ns_flows "http://ns.adobe.com/Flows/1.0/">
]>
<svg version="1.1"
	 xmlns="http://www.w3.org/2000/svg" xmlns:xlink="http://www.w3.org/1999/xlink" xmlns:a="http://ns.adobe.com/AdobeSVGViewerExtensions/3.0/"
	 x="0px" y="0px" width="352px" height="352px" viewBox="0 0 352 352" overflow="visible" enable-background="new 0 0 352 352"
	 xml:space="preserve">
<defs>
</defs>
<g>
	<defs>
		<rect id="SVGID_4_" width="352" height="352"/>
	</defs>
	<clipPath id="SVGID_5_">
		<use xlink:href="#SVGID_4_"  overflow="visible"/>
	</clipPath>
	<path clip-path="url(#SVGID_5_)" fill="#C0C2C4" d="M175.5,1.15c-12.34,35.341-25.15,70.51-37.589,105.809
		c4.032,0.072,8.065,0.054,12.097,0.036c5.016-0.023,10.031-0.045,15.043,0.104c6.61,0.27,13.54,3.03,17.19,8.81
		c4.179,6.53,3.948,14.9,1.318,21.98c-12.3,34.61-24.72,69.18-36.991,103.812c-5.86,0.08-11.72,0.066-17.581,0.055
		c-4.999-0.01-9.999-0.022-14.998,0.025c-0.328-0.007-0.659-0.004-0.991,0c-1.195,0.01-2.402,0.021-3.528-0.433
		c13.789-38.04,27.259-76.209,40.849-114.319c-3.169-0.049-6.338-0.04-9.507-0.032c-3.311,0.009-6.622,0.018-9.933-0.038
		c-1,2.07-1.699,4.27-2.45,6.45c-12.5,35.16-25.11,70.291-37.571,105.47c-0.589,0.9-0.439,2.86-1.849,2.87
		c-4.932,0.02-9.866,0.014-14.8,0.007c-5.41-0.006-10.822-0.012-16.23,0.014c-0.432-0.005-0.866,0.004-1.3,0.012
		c-1.437,0.025-2.88,0.052-4.269-0.371C80.779,162.71,108.5,83.78,136.88,5.09C81.44,16.95,33.75,58.44,13.14,111.131
		c-8.45,20.86-12.13,43.39-12.6,65.82c0.58,10.769,1.34,21.57,3.43,32.18c6.67,35.33,24.699,68.379,50.67,93.229
		c21.56,20.841,48.6,35.919,77.619,43.45c28.251-79,56.341-158.061,84.481-237.101c0.279-0.569,0.849-1.72,1.13-2.3
		c10.759,0.105,21.521,0.092,32.285,0.078c6.614-0.008,13.229-0.017,19.845,0.002c1.35,0.024,2.709,0.006,4.071-0.011
		c4.384-0.056,8.791-0.111,13.019,1.202c6.381,1.719,12.32,6.31,14.28,12.799c1.45,5.121,0.439,10.57-1.38,15.46
		c-11.09,32.38-22.83,64.53-34.28,96.77c-2.84,8.399-11.38,13.66-20.021,13.96c-6.765,0.125-13.532,0.104-20.3,0.08
		c-6.776-0.022-13.555-0.045-20.329,0.08c-12.44,34.66-24.761,69.36-37.089,104.05c2.105,0.897,4.301,0.749,6.506,0.602
		c1.165-0.078,2.333-0.156,3.493-0.08c5.059,0.39,10.079-0.541,15.109-0.9c33.021-3.031,65.02-15.821,91.101-36.27
		c20.928-16.321,38.119-37.441,49.729-61.312c10.179-20.54,15.889-43.16,17.53-65.97c-0.771-7.92-0.54-15.91-0.173-23.85
		c-2.237-30-12.169-59.44-28.938-84.44c-16.439-24.58-39.098-45.09-65.438-58.58C236.529,9.36,213.96,3.07,191.07,1.04
		c-1.638-0.349-3.275-0.468-4.916-0.468C182.612,0.572,179.06,1.129,175.5,1.15"/>
</g>
<g>
	<defs>
		<path id="SVGID_3_" d="M175.5,1.15c-12.34,35.342-25.15,70.51-37.589,105.809c4.032,0.073,8.065,0.054,12.096,0.036
			c5.017-0.023,10.032-0.045,15.044,0.104c6.61,0.27,13.54,3.03,17.19,8.81c4.179,6.53,3.948,14.9,1.317,21.98
			c-12.299,34.61-24.719,69.179-36.99,103.812c-5.86,0.08-11.72,0.064-17.581,0.054c-4.999-0.01-9.999-0.021-14.998,0.026
			c-0.328-0.008-0.659-0.005-0.991,0c-1.195,0.009-2.402,0.019-3.528-0.434c13.789-38.041,27.259-76.208,40.849-114.319
			c-3.169-0.049-6.338-0.04-9.507-0.032c-3.311,0.009-6.622,0.018-9.933-0.038c-1,2.07-1.699,4.27-2.45,6.45
			c-12.5,35.16-25.11,70.29-37.571,105.47c-0.589,0.9-0.439,2.86-1.849,2.87c-4.932,0.02-9.866,0.014-14.8,0.007
			c-5.41-0.006-10.822-0.012-16.23,0.014c-0.432-0.006-0.866,0.004-1.3,0.012c-1.437,0.025-2.88,0.052-4.269-0.371
			C80.779,162.71,108.5,83.78,136.88,5.09C81.44,16.95,33.75,58.44,13.14,111.131c-8.45,20.86-12.13,43.39-12.6,65.82
			c0.58,10.768,1.34,21.57,3.43,32.18c6.67,35.33,24.699,68.379,50.67,93.23c21.56,20.84,48.6,35.918,77.619,43.449
			c28.251-79,56.341-158.061,84.481-237.101c0.279-0.569,0.849-1.72,1.13-2.3c10.759,0.105,21.521,0.092,32.285,0.078
			c6.613-0.008,13.229-0.017,19.845,0.002c1.35,0.024,2.709,0.006,4.072-0.011c4.384-0.056,8.79-0.111,13.018,1.203
			c6.381,1.718,12.32,6.309,14.28,12.798c1.45,5.121,0.439,10.57-1.38,15.46c-11.09,32.38-22.83,64.53-34.28,96.77
			c-2.84,8.399-11.38,13.66-20.021,13.96c-6.765,0.124-13.532,0.104-20.3,0.08c-6.775-0.022-13.555-0.045-20.329,0.08
			c-12.44,34.66-24.761,69.361-37.089,104.05c2.106,0.898,4.301,0.749,6.506,0.603c1.165-0.079,2.333-0.157,3.493-0.08
			c5.06,0.389,10.079-0.541,15.109-0.901c33.021-3.032,65.019-15.821,91.101-36.269c20.928-16.322,38.119-37.442,49.729-61.312
			c10.179-20.54,15.889-43.16,17.53-65.97c-0.771-7.92-0.54-15.91-0.174-23.85c-2.236-30-12.168-59.44-28.937-84.44
			c-16.44-24.58-39.097-45.09-65.438-58.58C236.529,9.36,213.96,3.07,191.07,1.04c-1.638-0.349-3.275-0.468-4.916-0.468
			C182.613,0.572,179.059,1.129,175.5,1.15"/>
	</defs>
	<use xlink:href="#SVGID_3_"  overflow="visible" fill="#C0C2C4"/>
	<clipPath id="SVGID_6_">
		<use xlink:href="#SVGID_3_"  overflow="visible"/>
	</clipPath>
	<rect x="0.54" y="0.572" clip-path="url(#SVGID_6_)" fill="#C0C2C4" width="350.899" height="351.219"/>
</g>
<g>
	<defs>
		<rect id="SVGID_2_" width="352" height="352"/>
	</defs>
	<clipPath id="SVGID_7_">
		<use xlink:href="#SVGID_2_"  overflow="visible"/>
	</clipPath>
	<path clip-path="url(#SVGID_7_)" fill="#C0C2C4" d="M247.549,127.41c-11.87,33.16-23.619,66.358-35.488,99.51
		c6.509,0.04,13.06,0.32,19.56-0.14c11.5-33.44,23.74-66.619,35.43-99.99c-2.619-0.056-5.237-0.048-7.855-0.041
		c-2.402,0.007-4.804,0.014-7.204-0.029c-0.471,0.068-0.992,0.036-1.518,0.004c-0.3-0.019-0.601-0.037-0.895-0.037
		C248.804,126.687,248.076,126.815,247.549,127.41"/>
</g>
<g>
	<defs>
		<path id="SVGID_1_" d="M247.549,127.41c-11.871,33.16-23.619,66.357-35.488,99.51c6.51,0.04,13.06,0.32,19.56-0.14
			c11.5-33.44,23.741-66.619,35.43-99.99c-2.619-0.056-5.237-0.047-7.854-0.041c-2.403,0.007-4.806,0.014-7.205-0.029
			c-0.472,0.068-0.992,0.036-1.518,0.004c-0.3-0.019-0.601-0.037-0.895-0.037C248.804,126.687,248.076,126.815,247.549,127.41"/>
	</defs>
	<use xlink:href="#SVGID_1_"  overflow="visible" fill="#C0C2C4"/>
	<clipPath id="SVGID_8_">
		<use xlink:href="#SVGID_1_"  overflow="visible"/>
	</clipPath>
	<rect x="212.061" y="126.687" clip-path="url(#SVGID_8_)" fill="#C0C2C4" width="54.989" height="100.553"/>
</g>
</svg>
