<?xml version="1.0" encoding="utf-8"?>
<!-- Generator: Adobe Illustrator 15.1.0, SVG Export Plug-In  -->
<!DOCTYPE svg PUBLIC "-//W3C//DTD SVG 1.1//EN" "http://www.w3.org/Graphics/SVG/1.1/DTD/svg11.dtd" [
	<!ENTITY ns_flows "http://ns.adobe.com/Flows/1.0/">
]>
<svg version="1.1"
	 xmlns="http://www.w3.org/2000/svg" xmlns:xlink="http://www.w3.org/1999/xlink" xmlns:a="http://ns.adobe.com/AdobeSVGViewerExtensions/3.0/"
	 x="0px" y="0px" width="100px" height="100px" viewBox="-4.416 -33.356 100 100"
	 overflow="visible" enable-background="new -4.416 -33.356 100 100" xml:space="preserve">
<defs>
</defs>
<path fill="#C0C2C4" d="M18.407,29.061c0,2.42-1.957,4.228-4.349,4.228c-2.393,0-4.332-1.808-4.332-4.228
	c0-2.419,1.939-4.258,4.332-4.258C16.45,24.803,18.407,26.642,18.407,29.061 M16.182,29.078c0-1.399-0.953-2.372-2.124-2.372
	s-2.125,0.973-2.125,2.372c0,1.365,0.954,2.308,2.125,2.308S16.182,30.443,16.182,29.078"/>
<path fill="#C0C2C4" d="M38.407,29.061c0,2.42-1.956,4.228-4.349,4.228c-2.391,0-4.332-1.808-4.332-4.228
	c0-2.419,1.941-4.258,4.332-4.258C36.451,24.803,38.407,26.642,38.407,29.061 M36.182,29.078c0-1.399-0.953-2.372-2.124-2.372
	s-2.125,0.973-2.125,2.372c0,1.365,0.954,2.308,2.125,2.308S36.182,30.443,36.182,29.078"/>
<path fill="#C0C2C4" d="M67.249,29.061c0,2.42-1.958,4.228-4.349,4.228c-2.395,0-4.334-1.808-4.334-4.228
	c0-2.419,1.939-4.258,4.334-4.258C65.291,24.803,67.249,26.642,67.249,29.061 M65.021,29.078c0-1.399-0.951-2.372-2.121-2.372
	c-1.174,0-2.127,0.973-2.127,2.372c0,1.365,0.953,2.308,2.127,2.308C64.07,31.386,65.021,30.443,65.021,29.078"/>
<path fill="#C0C2C4" d="M23.707,26.828c-1.235,0-1.524,0.034-1.995,0.537c-0.439,0.455-0.519,1.114-0.519,1.758V33.1h-2.074v-8.092
	H21.1v0.801c0.554-0.835,1.386-0.816,2.607-0.788V26.828z"/>
<path fill="#C0C2C4" d="M72.552,26.828c-1.236,0-1.524,0.034-1.997,0.537c-0.439,0.455-0.519,1.114-0.519,1.758V33.1h-2.074v-8.092
	h1.982v0.801c0.552-0.835,1.385-0.816,2.607-0.788V26.828z"/>
<path fill="#C0C2C4" d="M29.167,33.082c-2.371,0.255-3.628-1.178-3.628-3.391v-2.845h-1.137v-1.838h1.137v-3.779h2.073v3.779h1.461
	v1.838h-1.461v2.858c0,1.131,0.519,1.558,1.555,1.491V33.082z"/>
<path fill="#C0C2C4" d="M46.443,33.1h-2.071V28.37c0-0.472-0.144-1.604-1.509-1.604c-0.927,0-1.571,0.693-1.571,1.604V33.1h-2.075
	v-8.092h1.98v0.786c0.518-0.613,1.225-0.991,2.089-0.991c1.9,0,3.157,1.431,3.157,3.567V33.1z"/>
<polygon fill="#C0C2C4" points="56.256,33.1 54.119,33.1 52.657,27.742 51.197,33.1 49.045,33.1 46.53,25.008 48.732,25.008 
	50.144,30.664 51.621,25.008 53.696,25.008 55.171,30.664 56.586,25.008 58.785,25.008 "/>
<polygon fill="#C0C2C4" points="75.188,30.773 75.188,33.1 73.114,33.1 73.114,21.012 75.188,21.012 75.188,27.946 77.842,25.008 
	80.702,25.008 77.687,28.166 80.875,33.1 78.235,33.1 76.226,29.691 "/>
<path fill="#C0C2C4" d="M84.538,33.287c-2.06,0-3.583-1.085-3.834-2.827h2.105c0.282,0.691,1.114,0.941,1.729,0.941
	c0.831,0,1.46-0.25,1.46-0.723c0-0.455-0.282-0.645-1.697-0.864c-1.445-0.219-3.377-0.611-3.377-2.419
	c0-1.273,1.115-2.592,3.455-2.592c1.855,0,3.237,1.005,3.503,2.53h-2.152c-0.125-0.377-0.579-0.677-1.351-0.677
	c-0.958,0-1.351,0.346-1.351,0.645c0,0.423,0.598,0.564,1.603,0.722c2.013,0.33,3.456,0.771,3.456,2.53
	C88.086,32.155,86.61,33.287,84.538,33.287"/>
<path fill="#C0C2C4" d="M83.421,14.26c0.066,0.017,0.128,0.044,0.185,0.075l-0.322-2.224c-0.033-0.213-0.218-0.303-0.432-0.306
	l-0.472-0.006c-0.213-0.004-0.391,0.085-0.375,0.299l0.162,1.838L83.421,14.26z"/>
<path fill="#C0C2C4" d="M9.83,15.505l-0.012,0.159c-0.003,0.053,0.039,0.101,0.091,0.107l0.442,0.044l0.026-0.139l0.079-0.321
	l-0.523,0.044C9.88,15.404,9.834,15.45,9.83,15.505"/>
<path fill="#C0C2C4" d="M12.625,13.542l-0.82,2.342c-0.018,0.052-0.042,0.098-0.07,0.138l-0.104,0.296l-0.214,3.194
	c-0.01,0.152,0.105,0.273,0.256,0.273h1.142c0.152,0,0.299-0.119,0.328-0.268l0.574-2.919l-0.973-2.836
	C12.726,13.707,12.675,13.614,12.625,13.542"/>
<path fill="#C0C2C4" d="M46.139,12.422l-1.055-0.027c-0.179-0.004-0.443-0.098-0.586-0.207l-4.874-3.725
	c-0.144-0.113-0.215-0.342-0.16-0.514l0.892-2.743l-5.514,1.241c-0.176,0.037-0.362,0.137-0.413,0.218
	c-0.052,0.079-0.178,0.266-0.284,0.413L32.109,9.93c-0.079,0.112-0.167,0.291-0.225,0.447c-0.017,0.05-0.031,0.098-0.042,0.141
	l-1.245,4.763c0,0,0.232,0.026,0.426,0.019c0.016,0.002,0.029,0.007,0.045,0.009c0.071,0.013,0.13,0.029,0.142,0.055l0.025-0.075
	l1.344-3.851c0.015-0.037,0.034-0.063,0.054-0.086c0.074-0.084,0.182-0.083,0.276,0.023l0.4,0.444
	c0.12,0.135,0.267,0.385,0.326,0.555l2.438,7.101c0.058,0.171,0.254,0.312,0.434,0.312h1.473c0.181,0,0.317-0.147,0.304-0.327
	l-0.281-3.736c-0.013-0.182,0.118-0.368,0.293-0.417l4.334-1.229c0.174-0.048,0.386,0.042,0.472,0.201l2.793,5.218
	c0.086,0.161,0.304,0.29,0.484,0.29h1.603c0.182,0,0.286-0.143,0.235-0.315L46.139,12.422z"/>
<path fill="#C0C2C4" d="M72.958,11.062l-1.246-0.031c-0.215-0.007-0.531-0.117-0.698-0.247l-5.772-4.413
	c-0.171-0.129-0.256-0.404-0.189-0.607l1.056-3.25l-6.53,1.47c-0.21,0.047-0.428,0.164-0.489,0.259
	c-0.059,0.094-0.211,0.316-0.337,0.489L56.34,8.111c-0.095,0.132-0.2,0.343-0.267,0.53c-0.022,0.058-0.039,0.116-0.049,0.166
	l-1.526,5.749l-0.029,0.114c0,0,0.256,0.027,0.467,0.059c0.116,0.023,0.214,0.051,0.234,0.083l0.124-0.351l1.603-4.562
	c0.016-0.044,0.04-0.078,0.062-0.106c0.086-0.098,0.218-0.097,0.33,0.028l0.47,0.527c0.146,0.159,0.32,0.455,0.389,0.658
	l2.885,8.412c0.071,0.202,0.303,0.369,0.517,0.369h1.746c0.213,0,0.375-0.177,0.359-0.389l-0.333-4.427
	c-0.017-0.212,0.138-0.436,0.345-0.494l5.136-1.452c0.205-0.059,0.457,0.047,0.559,0.236l3.435,6.183
	c0.101,0.188,0.358,0.343,0.574,0.343h1.622c0.215,0,0.34-0.168,0.28-0.374L72.958,11.062z"/>
<path fill="#C0C2C4" d="M68.872,13.59c-0.123-0.051-0.287,0.006-0.287,0.006l-1.09,0.31c-0.002,0.016-0.009,0.029-0.009,0.042
	l-0.335,5.451c-0.01,0.212,0.155,0.388,0.369,0.388h1.313c0.214,0,0.424-0.172,0.465-0.383l0.716-3.738
	c0.005-0.029,0.005-0.063,0.009-0.095l-0.954-1.778C69.069,13.793,68.998,13.64,68.872,13.59"/>
<path fill="#C0C2C4" d="M57.385,10.687c0,0-0.082-0.124-0.142-0.124c-0.046,0-0.076,0.095-0.076,0.095l-1.233,3.521l-0.001,0.002
	l-0.351,5.218c-0.014,0.212,0.15,0.389,0.364,0.389h1.621c0.217,0,0.424-0.172,0.466-0.384l0.856-4.355
	c0.013-0.069,0.021-0.152,0.026-0.239l-1.248-3.639C57.622,11.029,57.484,10.796,57.385,10.687"/>
<path fill="#C0C2C4" d="M54.866,15.229l-2.222-0.276l-0.033,1.215c-0.002,0.096-0.022,0.184-0.055,0.265l1.259-0.169
	c0.175-0.019,0.402-0.061,0.565-0.192l0.562-0.528C55.075,15.42,55.04,15.279,54.866,15.229"/>
<path fill="#C0C2C4" d="M52.258,9.092L50.18,5.417c-0.089-0.156-0.308-0.31-0.485-0.342l-3.338-0.578l2.149,5.18l0.124,0.297
	l0.912,0.4c0.168,0.074,0.313,0.282,0.327,0.461l0.305,4.159c0.014,0.179,0.151,0.405,0.307,0.5l1.333,0.817
	c0.154,0.092,0.283,0.022,0.29-0.159l0.191-6.863c0.002-0.015-0.005-0.026-0.006-0.041C52.293,9.197,52.29,9.147,52.258,9.092
	 M49.355,6.453c-0.237,0-0.428-0.19-0.428-0.425c0-0.236,0.19-0.429,0.428-0.429c0.234,0,0.428,0.193,0.428,0.429
	C49.783,6.263,49.589,6.453,49.355,6.453"/>
<path fill="#C0C2C4" d="M83.295,14.75l-2.724-0.702l-0.04,1.448c-0.003,0.124-0.038,0.232-0.085,0.332l1.604,0.147
	c0.214,0.023,0.516-0.079,0.673-0.227l0.663-0.626C83.544,14.974,83.502,14.807,83.295,14.75"/>
<path fill="#C0C2C4" d="M75.242,8.119L72.55,1.631l-0.12-0.293c-0.083-0.197-0.321-0.397-0.529-0.442l-4.056-0.887
	c-0.211-0.046-0.435,0.082-0.502,0.287l-0.706,2.171l-1.012,3.119c-0.067,0.204,0.018,0.477,0.189,0.607l5.366,4.106
	c0.172,0.129,0.488,0.239,0.702,0.246l0.916,0.022l3.105,0.075c0.214,0.005,0.32-0.153,0.239-0.351L75.242,8.119z"/>
<path fill="#C0C2C4" d="M80.207,7.12l-2.459-4.353c-0.106-0.185-0.366-0.368-0.577-0.406l-4.078-0.706l2.563,6.18l0.093,0.223
	l0.018,0.043l1.227,0.538c0.194,0.087,0.369,0.331,0.385,0.545l0.362,4.926c0.017,0.212,0.178,0.478,0.359,0.591l1.584,0.967
	c0.182,0.113,0.337,0.029,0.341-0.186l0.229-8.129c0-0.018-0.008-0.032-0.009-0.049C80.25,7.245,80.243,7.184,80.207,7.12
	 M76.738,4.088c-0.312,0-0.569-0.254-0.569-0.571c0-0.314,0.257-0.568,0.569-0.568c0.315,0,0.57,0.254,0.57,0.568
	C77.308,3.834,77.053,4.088,76.738,4.088"/>
<path fill="#C0C2C4" d="M45.691,4.213c-0.067-0.165-0.27-0.334-0.445-0.375l-3.425-0.749c-0.176-0.037-0.366,0.07-0.423,0.243
	l-0.596,1.835l-0.853,2.632c-0.057,0.172,0.015,0.404,0.159,0.512l4.533,3.466c0.144,0.11,0.408,0.202,0.59,0.208l0.772,0.018
	l2.621,0.063c0.182,0.006,0.272-0.127,0.204-0.295L45.691,4.213z"/>
<path fill="#C0C2C4" d="M28.768,10.86l-1.734-3.067c-0.075-0.13-0.257-0.259-0.405-0.286l-2.688-0.464l1.851,4.459l0.059,0.144
	l0.651,0.285c0.138,0.06,0.26,0.234,0.271,0.384l0.255,3.47c0.012,0.152,0.127,0.34,0.254,0.419l1.116,0.681
	c0.128,0.079,0.237,0.02,0.241-0.131l0.161-5.73c0-0.012-0.006-0.02-0.006-0.034C28.799,10.95,28.793,10.906,28.768,10.86
	 M26.345,8.617c-0.175,0-0.315-0.141-0.315-0.314c0-0.175,0.14-0.315,0.315-0.315c0.174,0,0.316,0.14,0.316,0.315
	C26.661,8.476,26.519,8.617,26.345,8.617"/>
<path fill="#C0C2C4" d="M23.288,6.787c-0.057-0.138-0.226-0.278-0.373-0.312L20.057,5.85c-0.148-0.033-0.306,0.059-0.352,0.202
	L18.494,9.78c-0.048,0.144,0.012,0.337,0.133,0.428l3.783,2.894c0.12,0.091,0.342,0.169,0.493,0.172l2.833,0.07
	c0.151,0.003,0.227-0.108,0.169-0.248L23.288,6.787z"/>
<path fill="#C0C2C4" d="M30.945,15.797l-1.77-0.049l-0.029,1.021c-0.001,0.063-0.021,0.12-0.037,0.178l0.96-0.287
	c0.133-0.041,0.387-0.094,0.523-0.211l0.416-0.389C31.119,15.957,31.09,15.838,30.945,15.797"/>
<path fill="#C0C2C4" d="M23.708,13.799L22.89,13.78c-0.258-0.006-0.583-0.12-0.789-0.278l-3.783-2.89
	c-0.29-0.225-0.419-0.638-0.308-0.986l0.64-1.969l-4.418,0.995c-0.147,0.031-0.302,0.114-0.344,0.181
	C13.844,8.9,13.737,9.054,13.65,9.179l-1.699,2.381c-0.089,0.122-0.189,0.343-0.223,0.49l-0.926,3.749
	c-0.035,0.146,0.475,0.06,0.525-0.082l1.016-2.898c0.051-0.143,0.175-0.168,0.275-0.055l0.334,0.371
	c0.1,0.112,0.223,0.32,0.272,0.464l2.034,5.927c0.048,0.144,0.212,0.261,0.365,0.261h1.227c0.151,0,0.265-0.122,0.254-0.274
	l-0.234-3.118c-0.012-0.15,0.098-0.307,0.244-0.348l3.618-1.024c0.145-0.043,0.322,0.034,0.394,0.167l2.332,4.355
	c0.071,0.134,0.252,0.242,0.404,0.242h1.337c0.151,0,0.239-0.119,0.197-0.263L23.708,13.799z"/>
<path fill="#C0C2C4" d="M41.513,14.917l-0.278,4.543c-0.008,0.178,0.132,0.327,0.313,0.327h1.108c0.18,0,0.358-0.145,0.393-0.323
	l0.593-3.103l-0.954-1.778L41.513,14.917z"/>
<path fill="#C0C2C4" d="M32.933,12.156l-0.049-0.054l-1.139,3.262l-0.274,4.095c-0.013,0.181,0.126,0.327,0.307,0.327h1.369
	c0.18,0,0.357-0.145,0.393-0.321l0.722-3.68c0.001-0.004,0.001-0.013,0.002-0.019l-1.107-3.228
	C33.119,12.431,33.008,12.242,32.933,12.156"/>
<path fill="#C0C2C4" d="M19.795,15.813l-0.227,3.699c-0.007,0.152,0.109,0.273,0.26,0.273h0.926c0.151,0,0.298-0.12,0.328-0.267
	l0.47-2.461l-0.81-1.513L19.795,15.813z"/>
<polygon fill="#C0C2C4" points="0,21.324 2.243,21.324 2.243,25.825 6.601,25.825 6.601,21.324 8.845,21.324 8.845,33.038 
	6.601,33.038 6.601,28.159 2.243,28.159 2.243,33.038 0,33.038 "/>
<path fill="#C0C2C4" d="M88.467,26.143c0-0.866,0.57-1.429,1.354-1.429s1.348,0.562,1.348,1.429c0,0.86-0.564,1.426-1.348,1.426
	S88.467,27.003,88.467,26.143 M88.729,26.143c0,0.678,0.36,1.199,1.092,1.199c0.726,0,1.087-0.521,1.087-1.199
	c0-0.68-0.361-1.197-1.087-1.197C89.089,24.945,88.729,25.463,88.729,26.143 M90.09,26.824l-0.278-0.5h-0.2v0.5h-0.31V25.41h0.526
	c0.292,0,0.492,0.102,0.492,0.449c0,0.156-0.097,0.291-0.227,0.378l0.313,0.587H90.09z M89.612,25.663v0.383h0.147
	c0.196,0,0.239-0.087,0.239-0.195c0-0.118-0.043-0.188-0.229-0.188H89.612z"/>
</svg>
