<?xml version="1.0" encoding="UTF-8" standalone="no"?>
<svg width="122px" height="107px" viewBox="0 0 122 107" version="1.1" xmlns="http://www.w3.org/2000/svg" xmlns:xlink="http://www.w3.org/1999/xlink" xmlns:sketch="http://www.bohemiancoding.com/sketch/ns">
    <!-- Generator: bin/sketchtool 1.4 (305) - http://www.bohemiancoding.com/sketch -->
    <title>Shape</title>
    <desc>Created with bin/sketchtool.</desc>
    <defs></defs>
    <g id="Welcome" stroke="none" stroke-width="1" fill="none" fill-rule="evenodd" sketch:type="MSPage">
        <g id="Desktop-HD" sketch:type="MSArtboardGroup" transform="translate(-1200.000000, -2134.000000)" fill="#C0C2C4">
            <g id="Amstck" sketch:type="MSLayerGroup" transform="translate(-56.000000, 0.000000)">
                <g id="Clients/Work" transform="translate(0.000000, 1272.000000)" sketch:type="MSShapeGroup">
                    <g id="Client-Logos" transform="translate(0.000000, 155.000000)">
                        <g id="mcdonalds-golden-arch" transform="translate(1083.000000, 707.000000)">
                            <path d="M260.371932,7.61062736 C270.861803,7.61062736 279.364231,51.9101415 279.364231,106.555849 L294.559985,106.555849 C294.559985,47.7063538 279.25239,0 260.371932,0 C249.631678,0 240.048625,14.3374953 233.781504,36.758033 C227.515894,14.3374953 217.930322,0 207.189564,0 C188.310617,0 173,47.7063538 173,106.555849 L188.197769,106.555849 C188.197769,51.9101415 196.70322,7.61062736 207.190068,7.61062736 C217.679939,7.61062736 226.18539,48.5033019 226.18539,98.944717 L241.378121,98.944717 C241.378121,48.5038066 249.883068,7.61062736 260.371932,7.61062736 L260.371932,7.61062736 Z" id="Shape"></path>
                        </g>
                    </g>
                </g>
            </g>
        </g>
    </g>
</svg>