<?xml version="1.0" encoding="UTF-8" standalone="no"?>
<svg width="401px" height="82px" viewBox="0 0 401 82" version="1.1" xmlns="http://www.w3.org/2000/svg" xmlns:xlink="http://www.w3.org/1999/xlink" xmlns:sketch="http://www.bohemiancoding.com/sketch/ns">
    <!-- Generator: bin/sketchtool 1.4 (305) - http://www.bohemiancoding.com/sketch -->
    <title>logo</title>
    <desc>Created with bin/sketchtool.</desc>
    <defs></defs>
    <g id="Welcome" stroke="none" stroke-width="1" fill="none" fill-rule="evenodd" sketch:type="MSPage">
        <g id="Desktop-HD" sketch:type="MSArtboardGroup" transform="translate(-167.000000, -2693.000000)" fill="#C0C2C4">
            <g id="Amstck" sketch:type="MSLayerGroup" transform="translate(-56.000000, 0.000000)">
                <g id="Clients/Work" transform="translate(0.000000, 1272.000000)" sketch:type="MSShapeGroup">
                    <g id="Client-Logos" transform="translate(0.000000, 155.000000)">
                        <g id="Motorola" transform="translate(188.000000, 1266.000000)">
                            <g id="logo" transform="translate(35.000000, 0.000000)">
                                <path d="M0,40.9881667 C0,18.3580909 18.2856,0 40.8506219,0 C63.4006062,0 81.6862063,18.3580909 81.6862063,40.9881667 C81.6862063,63.6295606 63.4006063,81.9863939 40.8506219,81.9863939 C18.2856,81.9851364 0,63.6295606 0,40.9881667 L0,40.9881667 Z M40.8293188,49.2076818 L29.1038281,10.1486364 L14.1615656,60.2844091 L17.1941281,60.2844091 C17.1941281,60.2844091 18.0299625,57.7214697 18.7379781,55.3786061 C22.145225,44.1736061 25.8369313,39.7871818 32.290525,42.1765758 C33.8982844,42.7802121 36.180225,46.1656061 37.483475,48.3298939 C38.59625,50.1420606 40.2817031,53.2822273 40.8268125,55.7357576 C41.3719219,53.2822273 43.0586281,50.1433182 44.1638844,48.3298939 C45.4683875,46.1656061 47.7703781,42.7814697 49.3568344,42.1765758 C55.8179469,39.7871818 59.5021344,44.1736061 62.9244188,55.3786061 C63.6261688,57.7214697 64.4682688,60.2844091 64.4682688,60.2844091 L67.4870469,60.2844091 L52.561075,10.1486364 L40.8293188,49.2076818 L40.8293188,49.2076818 Z" id="Shape"></path>
                                <path d="M108.925384,53.2344394 L116.619572,53.3564242 L120.530575,39.3633788 L124.094463,53.2344394 L129.393928,53.2344394 L140.65075,40.1984091 L137.094381,53.2344394 L147.069256,53.2344394 L153.757184,28.2753333 L140.437719,28.335697 L131.624491,38.793697 L128.50045,28.335697 L115.896519,28.2262879 L108.925384,53.2344394 L108.925384,53.2344394 Z M195.974966,28.3897727 L194.076481,36.1112879 L204.454863,36.1112879 L200.374688,53.3564242 L210.086406,53.294803 L214.493647,35.9968485 L225.028669,35.9968485 L226.814372,28.2753333 L195.974966,28.3897727 L195.974966,28.3897727 Z M292.622231,28.2262879 L269.137416,28.2262879 L267.132416,35.6635909 L276.342884,36.2823182 L276.887994,34.3205 L287.153594,34.3205 C289.109722,34.3205 288.938044,36.3426818 288.938044,36.3426818 C288.938044,36.3426818 288.825263,38.752197 286.267634,39.1898333 L275.726347,39.2514545 L276.342884,36.3439394 L267.132416,35.4938182 L266.691316,37.0117121 L262.285328,53.2960606 L271.480759,53.235697 L273.54215,45.4651364 L280.904259,45.5104091 C280.904259,45.5104091 283.589706,45.2928485 283.745094,47.2483788 C283.866647,49.0366515 283.638578,50.9393636 283.638578,50.9393636 C283.638578,50.9393636 283.525797,52.7993182 285.310247,53.2960606 L295.357803,53.235697 C294.520716,52.6773333 294.471844,51.1166818 294.471844,50.4413636 C294.471844,49.7698182 295.357803,47.9777727 295.024472,45.7355152 C294.740013,43.4530152 292.395416,42.9965152 292.119728,42.7701515 C292.119728,42.7701515 291.780131,42.5500758 292.1686,42.2130455 C298.255028,40.9818788 298.921691,34.9995909 298.921691,34.9995909 C298.921691,34.9995909 299.600884,28.9481364 292.622231,28.2262879 L292.622231,28.2262879 Z M344.261006,28.2262879 L338.177084,53.4620606 L363.163144,53.4092424 L364.893709,46.6937879 L349.3913,46.7390606 L353.692025,28.2262879 L344.261006,28.2262879 L344.261006,28.2262879 Z M385.198094,37.5109697 L385.863503,36.3917273 L380.337222,32.4240758 L366.3937,53.4092424 L374.646781,53.2344394 L377.446262,49.2667879 L377.446262,49.2076818 L389.319622,49.1498333 L389.376013,49.2667879 L390.325881,53.4092424 L400.13785,53.3564242 L394.506306,28.2262879 L383.022669,28.335697 L380.337222,32.5875606 L385.863503,36.6143182 L386.253225,35.8333636 L387.924894,43.2241364 L387.819631,43.2769545 L381.520172,43.2769545 L381.407391,43.2241364 L385.198094,37.5109697 L385.198094,37.5109697 Z M321.400247,33.8778333 L321.400247,27.3220909 C328.598197,27.3220909 336.624462,29.9026364 338.012925,36.8457121 C339.46655,43.9472424 332.763584,52.0573485 322.569412,54.0719848 C311.638403,56.2111212 301.931697,52.3327576 300.544487,45.0136667 C298.871566,36.3414242 308.181031,29.4473939 315.535622,28.0011818 C317.2712,27.6628939 319.395247,27.4390455 321.337591,27.3824545 L321.337591,33.9369394 C319.892737,33.8765758 318.388987,34.1532424 316.555666,34.8323333 C313.813828,35.8308485 310.639662,40.0286364 311.362716,44.2880455 C312.084516,48.6996212 318.496756,49.3787121 322.683447,47.2458636 C321.840094,47.7011061 329.143306,44.6791515 327.699706,37.6166061 C327.252341,35.4460303 324.411506,34.0413182 321.400247,33.8778333 L321.400247,33.8778333 Z M246.500966,33.8778333 L246.452094,32.9748939 L246.452094,27.3220909 C253.698916,27.3220909 261.670044,29.9026364 263.114897,36.8457121 C264.574787,43.9472424 257.886859,52.0573485 247.621259,54.0719848 C236.745387,56.2111212 226.983544,52.3327576 225.587562,45.0136667 C223.973537,36.3414242 233.232878,29.4473939 240.586216,28.0011818 C242.323047,27.6628939 244.497219,27.4390455 246.389437,27.3824545 L246.453347,33.8778333 L246.389437,33.938197 C245.000975,33.8778333 243.42705,34.1545 241.592475,34.8335909 C238.914547,35.8321061 235.691509,40.0298939 236.413309,44.289303 C237.192753,48.7008788 243.596222,49.3799697 247.7779,47.2471212 C246.940812,47.7023636 254.259062,44.6804091 252.800425,37.6178636 C252.353059,35.4460303 249.463353,34.0413182 246.500966,33.8778333 L246.500966,33.8778333 Z M175.117953,33.8778333 L175.117953,27.3220909 C182.308384,27.3220909 190.349688,29.9026364 191.730631,36.8457121 C193.190522,43.9472424 186.495075,52.0573485 176.293384,54.0719848 C165.361122,56.2111212 155.64815,52.3327576 154.259688,45.0136667 C152.588019,36.3414242 161.910016,29.4473939 169.264606,28.0011818 C170.992666,27.6628939 173.1117,27.4390455 175.066575,27.3824545 L175.066575,33.9369394 C173.614203,33.8765758 172.111706,34.1532424 170.263347,34.8323333 C167.536547,35.8308485 164.354863,40.0286364 165.085434,44.2880455 C165.800969,48.6996212 172.226994,49.3787121 176.456291,47.2458636 C175.570331,47.7011061 182.874797,44.6791515 181.422425,37.6166061 C180.976313,35.4460303 178.127959,34.0413182 175.117953,33.8778333 L175.117953,33.8778333 Z" id="Shape"></path>
                            </g>
                        </g>
                    </g>
                </g>
            </g>
        </g>
    </g>
</svg>