<?xml version="1.0" encoding="UTF-8" standalone="no"?>
<svg width="106px" height="106px" viewBox="0 0 106 106" version="1.1" xmlns="http://www.w3.org/2000/svg" xmlns:xlink="http://www.w3.org/1999/xlink">
    <!-- Generator: sketchtool 3.8.1 (29687) - http://www.bohemiancoding.com/sketch -->
    <title>CC512738-04C8-4B58-80E3-B5E586E03DD9</title>
    <desc>Created with sketchtool.</desc>
    <defs>
        <polygon id="path-1" points="0 105.878868 105.89366 105.878868 105.89366 0.108358491 0 0.108358491"></polygon>
    </defs>
    <g id="Welcome" stroke="none" stroke-width="1" fill="none" fill-rule="evenodd">
        <g id="Desktop-HD" transform="translate(-496.000000, -1827.000000)">
            <g id="Bullseye_75_CMYK" transform="translate(496.000000, 1827.000000)">
                <g id="Group-3">
                    <mask id="mask-2" fill="white">
                        <use xlink:href="#path-1"></use>
                    </mask>
                    <g id="Clip-2"></g>
                    <path d="M0,53.0551887 C0,23.8098679 23.7015094,0.108358491 52.9468302,0.108358491 C82.1881132,0.108358491 105.89366,23.8098679 105.89366,53.0551887 C105.89366,82.2904151 82.1881132,106 52.9468302,106 C23.7015094,106 0,82.2904151 0,53.0551887 L0,53.0551887 Z M52.9468302,88.2198302 C72.3683396,88.2198302 88.1134906,72.4766981 88.1134906,53.0551887 C88.1134906,33.6316604 72.3683396,17.8865094 52.9468302,17.8865094 C33.5233019,17.8865094 17.7801698,33.6316604 17.7801698,53.0551887 C17.7801698,72.4766981 33.5233019,88.2198302 52.9468302,88.2198302 L52.9468302,88.2198302 Z M52.9468302,70.9726415 C63.0330943,70.9726415 71.2054717,62.8002642 71.2054717,52.7160189 C71.2054717,42.6297547 63.0330943,34.4573774 52.9468302,34.4573774 C42.860566,34.4573774 34.6861698,42.6297547 34.6861698,52.7160189 C34.6861698,62.8002642 42.860566,70.9726415 52.9468302,70.9726415 L52.9468302,70.9726415 Z" id="Fill-1" fill="#C2C4C6" mask="url(#mask-2)"></path>
                </g>
                <path d="M87.3543962,105.854642 C89.849717,105.854642 91.9816415,103.918547 91.9816415,101.263736 C91.9816415,98.6351698 89.849717,96.6990755 87.3543962,96.6990755 C84.8348491,96.6990755 82.7029245,98.6351698 82.7029245,101.263736 C82.7029245,103.918547 84.8348491,105.854642 87.3543962,105.854642 L87.3543962,105.854642 Z M83.6215094,101.263736 C83.6215094,99.0954717 85.2567925,97.4601887 87.3543962,97.4601887 C89.4257547,97.4601887 91.0590189,99.0954717 91.0590189,101.263736 C91.0590189,103.46834 89.4257547,105.093528 87.3543962,105.093528 C85.2567925,105.093528 83.6215094,103.46834 83.6215094,101.263736 L83.6215094,101.263736 Z M86.3853396,101.627132 L87.3039245,101.627132 L88.6989623,103.918547 L89.5953396,103.918547 L88.0933019,101.590792 C88.8685472,101.493887 89.4620943,101.084057 89.4620943,100.137208 C89.4620943,99.0954717 88.8443208,98.6351698 87.5966604,98.6351698 L85.5858679,98.6351698 L85.5858679,103.918547 L86.3853396,103.918547 L86.3853396,101.627132 L86.3853396,101.627132 Z M86.3853396,100.948792 L86.3853396,99.3114906 L87.4735094,99.3114906 C88.030717,99.3114906 88.6242642,99.4346415 88.6242642,100.088755 C88.6242642,100.902358 88.0206226,100.948792 87.342283,100.948792 L86.3853396,100.948792 L86.3853396,100.948792 Z" id="Fill-4" fill="#C2C4C6"></path>
            </g>
        </g>
    </g>
</svg>